<svg xmlns="http://www.w3.org/2000/svg" width="323023.623" height="327559.045" viewBox="0 0 302.83465 307.08661"><path d="M299.694 153.79c0 82.202-66.534 148.84-148.61 148.84-82.074 0-148.612-66.638-148.612-148.84C2.472 71.595 69.01 4.956 151.085 4.956s148.61 66.64 148.61 148.836" clip-rule="evenodd" fill="#fff" fill-rule="evenodd"/><path d="M294.074 152.967c0 78.39-63.55 141.936-141.937 141.936-78.392 0-141.94-63.547-141.94-141.936 0-78.39 63.548-141.938 141.94-141.938 78.388 0 141.937 63.546 141.937 141.937" fill="#cdb87d"/><path d="M60.93 167.122l12.853 10.792 5.968-13.548c3.444 11.48 9.113 30.066 15.918 36.04-.996 1.835-4.67 5.05-4.67 5.05s5.97 8.496 9.87 11.247c3.905 2.757 24.333 16.3 37.876 17.676 1.607.917 2.067 2.983 2.067 2.983l-.22 1.363s19.962.244 21.338-.215c1.378-.458.46-3.213.46-3.213s2.524-.46 7.345-2.066c4.82-1.606 22.495-6.424 42.236-27.314-1.378-.92-5.51-3.902-4.82-5.05.688-1.15 10.558-12.167 15.608-36.5 2.985 4.593 6.428 13.086 6.428 13.086l11.706-9.408c-2.296 9.408-8.034 25.477-10.558 29.838 3.213 2.296 7.345 5.51 7.345 5.51-11.937 19.97-29.842 40.858-69.324 50.04-.23 2.984.176 3.273-.832 4.047-1.004.773-29.697 3.527-32.45-.145-.23-1.377-1.77-4.29-1.77-4.29-9.25-1.907-53.243-15.703-68.317-49.893 2.14-1.365 7.19-4.81 7.19-4.81l-11.248-31.22z" fill="#fff"/><path d="M116.938 91.602l1.377-14.92 2.295-2.296 1.148-7.116-3.443-4.36v-8.263l22.495-.23.23-6.427 20.66-.46.228 7.346 22.724-.23-.458 7.804-3.214 3.904.69 7.803 2.753 2.527 1.377 14.69 33.743.92c0 50.5 10.1 106.507-68.863 144.382-73.684-39.252-68.405-78.736-68.405-144.153l34.663-.92z" fill="#fff"/><path fill="#cdb87d" d="M140.122 55.105l4.592 5.28-2.067 6.886h-6.427l-.23-1.606 2.984-3.214M163.076 55.565l.23 7.115 3.902 4.82-7.804-.228-.92-7.806"/><path d="M229.336 59.84c1.054-.733 2.19-1.88 3.407-3.434 1.672-2.136 2.61-4 2.82-5.584.21-1.58-.232-2.8-1.32-3.652-1.52-1.186-3.265-1.09-5.243.28-1.04.732-2.168 1.865-3.367 3.4-1.22 1.563-2.06 2.943-2.507 4.14-.838 2.217-.5 3.917 1.015 5.105 1.507 1.176 3.237 1.09 5.196-.256M191.38 267.018c-.75-.776-1.722-.968-2.915-.587-.647.215-1.046.436-1.198.667-.146.223-.16.52-.037.887l2.008 6.17c1.578-.536 2.636-1.128 3.177-1.77.547-.647.572-1.733.078-3.265-.31-.94-.68-1.642-1.113-2.102M153.32 275.722c.016-.968-.142-1.79-.49-2.458-.34-.672-1.01-1.017-2.013-1.034-.53-.01-.905.072-1.113.253-.21.17-.318.487-.325.954l-.102 5.726c1.575.028 2.635-.21 3.187-.72.547-.5.835-1.412.855-2.72M77 246.057c-.394-.32-.717-.5-.97-.54-.24-.048-.47.067-.687.333l-4.312 5.323c1.197.934 2.094 1.44 2.692 1.502.948.11 1.958-.498 3.03-1.818.73-.904 1.167-1.758 1.314-2.553.147-.804-.21-1.55-1.065-2.247M140.684 26.277c.672-.52.92-1.582.758-3.18-.11-.983-.324-1.743-.657-2.286-.57-.914-1.482-1.306-2.727-1.176-.677.072-1.113.206-1.31.4-.186.185-.262.475-.222.86l.68 6.45c1.655-.2 2.815-.554 3.478-1.067M152.302 280.5c-.638-.376-1.65-.567-3.035-.567l-.113 6.374c0 .447.06.776.18.988.202.367.6.553 1.19.568 1.196.022 2.047-.296 2.538-.94.504-.645.764-1.577.786-2.786.03-1.812-.484-3.025-1.546-3.638" fill="#1C2957"/><path d="M92.71 170.738c-4.318-12.815-5.178-22.24-5.377-34.41l128.96.022c.015 9.757-1.045 21.51-5.43 34.41L92.71 170.74z" clip-rule="evenodd" fill="#cdb87d" fill-rule="evenodd"/><path d="M1.417 153.543c0 82.71 67.288 150 150.002 150 82.706 0 149.997-67.29 149.997-150 0-82.712-67.29-150-149.998-150-82.715 0-150.003 67.288-150.003 150m2.626 0C4.043 72.283 70.156 6.17 151.42 6.17c81.257 0 147.37 66.112 147.37 147.373 0 81.26-66.113 147.375-147.37 147.375-81.264 0-147.377-66.113-147.377-147.375" clip-rule="evenodd" fill="#1C2957" fill-rule="evenodd"/><path d="M165.257 92.693h-3.813l-.032.458h25.48l-1.273-17.002-2.45-2.447c-.142-.96-.78-5.353-.985-6.756.918-.903 3.484-3.436 3.484-3.436v-9.963h-22.7V46.84H139.86v6.705h-22.748v9.96l3.487 3.44c-.204 1.402-.842 5.794-.983 6.756-.6.602-2.447 2.448-2.447 2.448l-1.21 17.003h25.48l-.037-.457h-3.92s-.015-.17-.033-.417h-19.256l.035-.49s.06-.872.154-2.184h6.403v1.828h.478v-1.828h6.755v1.828h.477v-1.828h6.094c.12 1.544.198 2.61.198 2.61h3.742v.754h17.767v-.755h1.18l-.017.264h1.974l.014-.263h.2l.03-.425s.065-.87.156-2.183h6.408v1.828h.473v-1.828h6.756v1.828h.474v-1.828h6.457l.195 2.674h-19.302l-.036.417m18.863-7.017h-6.175v-2.96h5.97l.205 2.96zm-13.403-23.62h6.755v2.966h-6.755v-2.965zm-3.618-3.44h6.757v2.965H167.1v-2.964zm7.232 0h6.758v2.965h-6.758v-2.964zm7.518 16.735h-7.518v-2.963h6.448c.164 1.166.295 2.07.295 2.125v.002c0 .003.344.37.775.837m-4.378 3.446h-6.756V75.83h6.756v2.966zm-6.755-9.85h6.755v2.964h-6.755v-2.965zm7.228 2.964v-2.965h2.34c.142.972.294 2.02.43 2.965h-2.77zm1.91-5.945c.002.027.158 1.12.36 2.502h-5.883V65.5h6.133c-.34.3-.58.49-.61.465m-5.998-.464v2.966h-5.747c.06-.324.116-.606.172-.917.082-.417.16-.854.238-1.22 0 0-.07-.068-.1-.095-.107-.107-.36-.354-.74-.735h6.177zm-5.833 3.445h2.22v2.965h-2.736c.16-.922.33-1.95.516-2.965m5.833 3.443v2.964h-7.36c.256-.244.453-.437.465-.44.066-.187.242-1.203.47-2.524h6.425zm-3.614 3.443v2.966h-5.582l.188-1.81s.6-.6 1.164-1.155h4.23zm-3.617 3.442v2.968h-2.24c.08-1.095.163-2.117.235-2.968h2.006zm3.617 3.445v2.96h-6.12c.077-.984.15-1.988.228-2.96h5.893zm-3.144-3.445h6.757v2.966H167.1v-2.966zm3.617 3.445h6.755v2.96h-6.755v-2.96zm3.615-3.445h6.758v2.966h-6.758v-2.966zm9.547 2.968h-2.317v-2.968h2.103l.213 2.968zm-1.59-6.41c.584.64 1.172 1.307 1.238 1.45l.107 1.516h-5.69V75.83h4.344zm1.078-13.097s-1.354 1.337-2.38 2.29h-3.043v-2.966h5.438l-.015.676zm.027-1.152h-1.832v-2.964h1.892l-.06 2.965zm-3.554-5.87h3.666v.46l-.04 1.967h-3.625V55.71zm-7.635 0h3.81v2.427h-3.81V55.71zm-7.47 0h3.64v2.427h-3.64V55.71zm0 2.906h1.89v2.965h-1.89v-2.964zm0 3.44h5.508v2.968h-3.04c-1.06-1.065-2.39-2.42-2.468-2.617v-.35zm.6 4.18h-4.977c-.238-1.604-.703-4.827-.875-5.996.69-.683 2.322-2.29 3.083-3.04v6.306l2.77 2.73m-17.23-10.832h6.642v2.733h-6.642v-2.733zm-3.616-3.213h6.758v2.73h-6.758v-2.73zm7.23 0h6.757v2.73h-6.757v-2.73zm5.43 7.07l.337 2.32h-5.767v-2.964h6.237c-.435.392-.767.675-.806.643m.833 5.764h-2.762v-2.967h2.34c.14.96.286 2.008.423 2.967m-6.735-6.408v2.965h-5.81c.13-.693.256-1.36.378-1.953 0 0-.445-.44-1.017-1.01h6.448zm-3.616 3.44v2.968h-2.797c.16-.938.34-1.95.52-2.967h2.277zm3.616 3.445v.736h-6.617c.04-.237.083-.475.125-.735h6.493zm-3.142-3.443h6.642v2.965h-6.642v-2.965zm3.614 3.444h6.335c.035.263.07.5.1.736h-6.435V65.5zm3.5-7.363v-2.733h5.46l-.014.626s-1.19 1.172-2.19 2.107h-3.255zm3.732-3.218v-2.73h1.792l-.053 2.73h-1.738zm-1.815-5.915h3.666v.46l-.044 2.242h-3.624v-2.702zm-7.637 0h3.813v2.702H149.5v-2.702zm-7.47 0h3.648v2.702h-3.647v-2.702zm0 3.186h1.988v2.73h-1.987v-2.73zm0 3.214h5.602v2.733h-3.31c-1.025-1.033-2.214-2.25-2.29-2.435v-.298zm-1.81 8.104v-6.352c.738.725 2.42 2.386 3.13 3.084-.174 1.17-.64 4.392-.876 5.996h-5.02l2.767-2.728m-14.952-1.45h6.754v2.964h-6.754v-2.965zm-3.615-3.442h6.753v2.965h-6.753v-2.964zm7.23 0h6.752v2.965h-6.753v-2.964zm7.52 16.735h-7.52v-2.963h6.45c.164 1.166.29 2.07.29 2.125l-.002.002c.003.003.35.37.782.837m.44.48c.58.64 1.17 1.307 1.234 1.45l.107 1.516h-5.685V75.83h4.343zm-11.574-6.885h6.754v2.965h-6.754v-2.965zm7.23 2.965v-2.965h2.336c.142.972.294 2.02.43 2.965h-2.766zm1.943-5.674c.043.272.108.732.194 1.313.04.286.087.592.133.917h-5.885V65.5h6.13c-.338.3-.574.49-.61.465.002.008.02.115.04.27m-6.037-.734v2.966h-5.746c.138-.755.276-1.494.408-2.135 0 0-.36-.353-.837-.83h6.175zm-5.833 3.445h2.218v2.965h-2.73c.155-.922.33-1.95.512-2.965m5.833 3.443v2.964h-7.357c.254-.244.453-.437.468-.44.063-.187.24-1.203.464-2.524h6.425zm-3.137 3.443h6.754v2.966h-6.754V75.83zm3.137 6.41h-6.753v-2.966h6.753v2.966zm-3.137.477h6.754v2.96h-6.754v-2.96zm3.614-3.445h6.753v2.966h-6.753v-2.966zm3.616 3.445h5.964l.212 2.96h-6.176v-2.96zm3.616-.477v-2.968h2.104l.21 2.968h-2.314zm-.577-17.216h-3.04v-2.967h5.438l-.014.676s-1.354 1.337-2.383 2.29m.577-3.442v-2.964h1.894l-.063 2.965h-1.83zm-1.725-5.87h3.668v.46l-.043 1.967h-3.627V55.71zm-7.636 0h3.81v2.427h-3.81V55.71zm-7.474 0h3.65v2.427h-3.65V55.71zm0 2.906h1.894v2.965h-1.894v-2.964zm0 3.79v-.35h5.51v2.968h-3.035c-1.062-1.065-2.393-2.42-2.475-2.617m.118 14.58s.598-.6 1.163-1.156h4.23v2.966h-5.58c.092-1.043.158-1.748.188-1.81m-.226 2.286h2.004v2.968h-2.243c.087-1.095.166-2.117.24-2.968m-.274 3.445h5.89v2.96h-6.117c.077-.984.152-1.988.226-2.96m2.276 6.41h-2.754l.217-2.96h2.536v2.96zm7.23 0h-6.754v-2.96h6.753v2.96zm7.23 0h-6.754v-2.96h6.753v2.96zm.478 0v-2.96h2.595l.21 2.96h-2.806zm10.256 2.692h-2.847v-3h2.847v3zm0-3.658h-2.847V85.58h2.847v2.582zm0-3.24h-2.847V82.34h2.847v2.582zm.02-3.238h-2.867v-.31c0-.98.198-1.905.526-2.77l2.64 1.543c-.177.484-.285.998-.3 1.537m.575-2.14l-2.656-1.547c.565-1.186 1.406-2.202 2.453-2.972l1.623 2.833c-.588.45-1.073 1.026-1.42 1.687m4.123-2.702c-.78.052-1.507.282-2.153.655l-1.62-2.838c1.108-.68 2.392-1.09 3.772-1.148v3.33zm.655 0V73.51c1.39.058 2.68.473 3.793 1.16l-1.63 2.833c-.65-.375-1.38-.608-2.163-.66m2.712 1.026l1.63-2.83c1.03.762 1.866 1.767 2.428 2.933l-2.657 1.558c-.345-.652-.82-1.217-1.4-1.66m4.855 13.95h-2.853v-3h2.853v3zm0-3.658h-2.853V85.58h2.853v2.582zm0-3.24h-2.853V82.34h2.853v2.582zm0-3.238h-2.87c-.015-.544-.125-1.064-.307-1.55l2.644-1.554c.328.872.533 1.807.533 2.795v.31zm3.51 10.135h-2.524V81.374c0-4.898-3.983-8.883-8.88-8.883-4.9 0-8.887 3.985-8.887 8.883V91.82h-2.518c-.078-1.13-1.077-15.09-1.077-15.09l-2.552-2.55c.01 0 .013-.024.013-.067 0-.518-.47-3.79-.684-5.253h2.91v2.956h3.555V68.86h3.79v2.956h3.555V68.86h3.783v2.956h3.557V68.86h3.79v2.956h3.554V68.86h2.908c-.172 1.17-.828 5.577-.836 5.64-.095-.062-2.214 2.056-2.214 2.056l-.172.174c0 .002-.992 13.96-1.074 15.09m3.804-2.693h-2.755c.067-.87.136-1.882.22-2.96h2.536v2.96zm7.23 0H167.1v-2.96h6.757v2.96zm7.23 0h-6.758v-2.96h6.76v2.96zm.477 0v-2.96h2.594l.214 2.96h-2.807z" fill="#1C2957"/><path d="M139.403 92.474l-.02-.263h-.245l.006.066h-1.693l.032.416h3.923l-.013-.218h-1.99zM163.45 92.212h-22.08l.02.262h22.043"/><path d="M141.39 92.474l-.02-.262h-1.985l.018.262M161.444 92.693l.017-.22h-20.07l.015.22M165.294 92.276h-1.652l.008-.064h-.2l-.015.263h-1.974l-.015.218h3.813s.013-.168.036-.417"/><path d="M151.42 183.16c-5.402 0-9.79 4.39-9.79 9.79 0 5.395 4.388 9.785 9.79 9.785 5.393 0 9.783-4.39 9.783-9.786 0-5.4-4.39-9.79-9.784-9.79M117.47 109.08c-5.398 0-9.788 4.39-9.788 9.787 0 5.395 4.39 9.787 9.788 9.787 5.396 0 9.786-4.39 9.786-9.787 0-5.396-4.39-9.786-9.786-9.786M185.362 109.08c-5.392 0-9.784 4.39-9.784 9.787 0 5.395 4.392 9.787 9.784 9.787 5.394 0 9.784-4.39 9.784-9.787 0-5.396-4.39-9.786-9.784-9.786" clip-rule="evenodd" fill="#1C2957" fill-rule="evenodd"/><path fill="#1C2957" d="M156.83 139.18h8.958v8.96h-8.96zM156.83 158.95h8.958v8.957h-8.96zM166.712 149.064h8.957v8.96h-8.958zM176.595 139.18h8.958v8.96h-8.958zM176.595 158.95h8.958v8.957h-8.958zM186.48 149.064h8.953v8.96h-8.954zM196.36 139.18h8.96v8.96h-8.96zM196.36 158.95h8.96v8.957h-8.96zM97.528 139.18h8.957v8.96h-8.957zM97.528 158.95h8.957v8.957h-8.957zM127.178 149.064h8.96v8.96h-8.96zM117.295 139.18h8.957v8.96h-8.957zM117.295 158.95h8.957v8.957h-8.957zM137.063 139.18h8.955v8.96h-8.955zM137.063 158.95h8.955v8.957h-8.955zM146.943 149.064h8.96v8.96h-8.96zM107.41 149.064h8.96v8.96h-8.96z"/><path d="M88.48 152.55l.33 2.298.4 2.06.196 1.117h7.18v-8.96h-8.515l.148 1.497.26 1.988zM214.617 150.578l.146-1.514h-8.52v8.96h7.183l.2-1.113s.392-2.062.392-2.04l.333-2.315s.267-1.988.267-1.977" clip-rule="evenodd" fill="#1C2957" fill-rule="evenodd"/><path d="M215.94 95.527H86.23v41.288c0 71.273 64.305 95.97 64.958 96.21l.23.085.23-.086c.65-.24 64.95-24.936 64.95-96.21V95.528h-.66zm-.664 1.325v39.963c0 69.113-61.112 93.805-63.857 94.874-2.748-1.07-63.864-25.762-63.864-94.875V96.852h127.72z" clip-rule="evenodd" fill="#1C2957" fill-rule="evenodd"/><path d="M18.572 159.805c0 2.84 2.307 5.145 5.145 5.145 2.837 0 5.146-2.306 5.146-5.145 0-2.838-2.31-5.145-5.146-5.145-2.838 0-5.145 2.307-5.145 5.145m.734 0c0-2.432 1.98-4.415 4.41-4.415 2.435 0 4.413 1.983 4.413 4.415 0 2.433-1.978 4.413-4.413 4.413-2.432 0-4.41-1.98-4.41-4.413" fill="#1C2957"/><path d="M167.23 256.695c.02-4.19 1.26-13.903 1.866-18.4-.998.398-2.34.753-3.93 1.056-3.46.666-8.302 1.126-13.747 1.126-5.452 0-10.294-.46-13.752-1.125-1.585-.302-2.926-.653-3.926-1.05.615 4.502 1.84 14.205 1.865 18.395.404.28.825.444 1.43.605 1.248.328 2.945.535 4.748.682 3.702.298 7.856.298 9.634.298 1.775 0 5.926 0 9.627-.298 1.808-.147 3.5-.354 4.747-.682.61-.162 1.027-.326 1.27-.476l.165-.13zm.293.782c-.344.218-.89.434-1.528.6-1.28.333-3.025.554-4.887.705-3.727.294-7.903.294-9.69.294-1.793 0-5.966 0-9.696-.294-1.86-.15-3.604-.372-4.883-.706-.64-.164-1.185-.38-1.534-.6l-.502-.387c-.022-4.558-1.244-14.204-1.854-18.684l-.188-1.357 1.277.504c.93.37 2.22.713 3.778 1.014 3.424.656 8.21 1.106 13.6 1.106 5.39 0 10.176-.45 13.597-1.106 1.56-.3 2.852-.643 3.784-1.014l1.274-.505-.183 1.354c-.602 4.472-1.835 14.13-1.858 18.298l-.51.775z" fill="none"/><path d="M134.364 253.27l-.822-.177c-.54-6.657-2.02-16.886-2.02-16.886l1.895-.04c.134-.077.385.085.806.263.838.36 2.127.726 3.805 1.047.79.152 1.65.29 2.577.416l-.016.832-2.706-.458c-1.703-.326-3.064-.705-3.978-1.1l-1.464-.177c.355 2.51 1.352 9.775 1.83 15.2l.092 1.08z" fill="none"/><path d="M66.038 203.49c8.705 18.172 35.074 42.222 68.254 48.945l.07.834-1.056-.226c-33.03-6.993-59.246-30.96-67.99-49.208l-.33-.685.668-.367c6.756-3.682 13.233-8.21 15.78-10.042l.878-.627.35 1.02c2.416 7.035 17.505 32.474 57.37 42.004l.628.15-.07 3.438-.797-.137.053-2.674c-40.146-9.598-55.44-35.235-57.944-42.524-2.56 1.846-9.073 6.395-15.864 10.1M169.217 254.085l-1.902.372c.295-4.764 1.27-12.342 1.78-16.16-.996.398-2.337.753-3.928 1.054-1.143.224-2.44.42-3.86.59l-.032-1.924c1.29-.156 2.478-.338 3.532-.537 1.678-.324 2.967-.692 3.803-1.05.425-.178.687-.383.81-.493.187-1.29 1.768-1.257 1.898.043.022.2 0 .387-.047.55-.275 1.907-1.64 11.644-2.053 17.555" fill="none"/><path d="M83.647 189.943c-.57 0-1.402.197-2.115 1.14l1.883 1.43c.027-.033.16-.205.24-.205.9-.004 2.996 2.74 4.385 4.558 2.313 3.023 4.496 5.878 6.85 6.104l2.348-.804-1.57-1.764-.55.215c-1.332-.13-3.568-3.05-5.202-5.19-2.25-2.942-4.196-5.487-6.27-5.484M142.183 244.034c.006.01.006.037-.003.08l-1.062 8.677c-.046.368.023.616.208.74.185.122.545.23 1.08.316l-.025.203-4.062-.497.026-.22c.585.044.975.01 1.167-.097.195-.107.317-.38.372-.81l.82-6.673c.028-.23.02-.41-.02-.535-.046-.132-.167-.205-.356-.23-.126-.014-.292 0-.504.05-.205.043-.398.094-.578.15l.023-.203 2.81-1.023.086.006c.017.03.025.052.02.066M150.817 244.602l-.007.236-3.488 9.617-.956-.03 3.246-8.77-3.162-.114c-.47-.013-.813.052-1.024.2-.208.145-.476.46-.81.94l-.248-.12.628-1.41c.084-.18.19-.427.327-.743l5.494.195zM156.468 253.563c.275-.323.404-.714.39-1.18-.02-.526-.19-.946-.504-1.26-.312-.317-.947-.79-1.908-1.422-.407.278-.695.627-.87 1.048-.178.422-.255.828-.24 1.21.02.67.208 1.186.558 1.57.36.38.804.56 1.327.54.56-.02.974-.186 1.248-.505m-.43-5.88c.287-.383.42-.838.403-1.364-.013-.462-.17-.844-.468-1.155-.293-.313-.725-.46-1.303-.44-.447.015-.804.165-1.084.456-.284.296-.417.64-.402 1.042.015.456.2.875.552 1.25.355.378.82.726 1.386 1.052.444-.336.753-.616.916-.84m-3.35.535c-.377-.45-.573-.956-.595-1.517-.02-.637.223-1.19.736-1.65.516-.465 1.196-.71 2.045-.738.778-.035 1.407.158 1.877.56.48.407.723.887.744 1.445.02.56-.203 1.08-.655 1.545-.257.27-.687.575-1.278.932.845.583 1.448 1.095 1.816 1.537.375.437.572.96.595 1.576.024.697-.22 1.29-.73 1.783-.508.492-1.197.757-2.078.785-.79.03-1.474-.166-2.05-.584-.583-.418-.884-.986-.905-1.703-.02-.614.153-1.162.53-1.643.244-.313.68-.694 1.3-1.143-.662-.492-1.11-.886-1.35-1.185M164.79 243.57l.03.243-1.94 10.042-.952.122 1.837-9.176-3.14.39c-.467.058-.8.175-.984.35-.18.182-.4.536-.652 1.063l-.265-.086c.217-.804.35-1.3.402-1.488.057-.192.12-.456.203-.785l5.462-.674zM81.995 201.978l-.228.157c-.212-.308-.374-.505-.485-.595-.198-.15-.394-.16-.592-.03-.098.067-.22.198-.35.39-.135.194-.347.53-.64 1.008l-2.995 4.822 5.827-1.38c.256-.063.47-.123.636-.184.166-.05.294-.106.385-.164.234-.164.326-.373.275-.63-.037-.158-.14-.374-.32-.653l.23-.16 1.702 2.526-.21.14c-.214-.24-.413-.385-.603-.433-.283-.09-.726-.06-1.322.075l-8.774 1.95-.124-.187 4.727-7.615c.4-.642.617-1.09.65-1.337.04-.246-.03-.53-.21-.836l.21-.143 2.212 3.278zM78.828 213.983c.403.374.71.575.915.61.213.03.533-.137.955-.507l4.993-4.34c.4-.345.605-.632.622-.857.02-.227-.136-.565-.47-1.003l.207-.185 5.182 5.963-1.578 1.44-.248-.29c.414-.522.61-.945.595-1.26-.02-.32-.316-.803-.887-1.465l-1.324-1.52c-.145-.168-.26-.243-.352-.236-.082.006-.198.075-.34.2l-2.507 2.177 1.505 1.726c.412.482.75.723 1.007.732.256.008.638-.135 1.142-.438l.228.266-2.596 2.256-.228-.262c.358-.463.553-.818.58-1.072.026-.254-.167-.622-.578-1.095l-1.502-1.727-2.778 2.416c-.222.194-.294.377-.212.553.082.176.43.613 1.04 1.31.658.762 1.23 1.254 1.707 1.473.483.215 1.168.19 2.06-.075l.27.31-2.336 1.138-5.275-6.064.203-.173zM92.95 221.445c.798.304 1.504.125 2.115-.53.587-.63.73-1.3.427-2.016-.16-.38-.47-.782-.925-1.21-.31-.287-.52-.44-.634-.46-.105-.02-.235.05-.385.212l-2.502 2.685c.81.7 1.447 1.14 1.905 1.318m-7.23.303c.455.352.79.514 1.007.487.22-.028.54-.273.96-.725l4.396-4.71c.354-.38.53-.685.52-.91 0-.225-.182-.543-.544-.936l.187-.2 3.01 2.81c.626.58 1.074 1.147 1.344 1.693.514 1.042.393 1.968-.36 2.774-.504.542-1.07.794-1.692.75-.624-.036-1.28-.285-1.97-.76l-.33 4.846c-.02.297.004.547.07.756.064.205.194.42.39.645l-.184.193-1.75-1.63.526-5.765-.63-.533-1.995 2.134c-.375.406-.556.715-.537.938.025.222.226.545.604.962l-.182.2-3.02-2.817.18-.202zM94.213 229.17c.508.33.875.497 1.1.497.225-.008.514-.238.862-.696l3.98-5.287c.33-.43.468-.765.42-1-.05-.234-.305-.544-.773-.936l.168-.218 3.515 2.65-.166.22c-.502-.342-.872-.504-1.112-.483-.237.017-.52.242-.846.678l-3.982 5.284c-.345.46-.49.798-.43 1.013.06.222.32.53.777.926l-.16.216-3.517-2.646.163-.22zM104.172 224.76l7.123 4.456-1.27 2.18-.3-.187c.272-.768.356-1.32.252-1.666-.098-.348-.512-.746-1.24-1.202l-.705-.44-4.03 6.45c-.306.49-.42.84-.34 1.058.076.207.36.49.85.85l-.14.228-3.675-2.293.142-.232c.556.292.944.41 1.16.355.217-.054.493-.35.836-.896l3.94-6.304-.7-.44c-.7-.435-1.237-.634-1.618-.592-.378.044-.84.368-1.39.962l-.308-.19 1.412-2.097zM114.3 237.312l.17-4.437-3.267 3 3.098 1.437zm-7.43.748l.115-.242c.363.125.68.11.96-.03.277-.145.858-.612 1.743-1.407l5.894-5.3.263.12-.205 9.206c-.013.606.014 1.01.09 1.195.082.18.268.368.565.562l-.114.24-3.428-1.596.115-.245c.41.15.685.227.823.23.136 0 .25-.096.344-.292.03-.066.063-.195.097-.38.034-.19.055-.39.062-.612l.044-1.56-3.526-1.645c-.764.72-1.223 1.163-1.385 1.33-.157.162-.263.298-.315.408-.106.232-.086.433.057.607.09.106.286.244.59.416l-.115.248-2.67-1.248zM119.54 240.433c.022.713.128 1.314.318 1.802.33.844.915 1.412 1.74 1.7.45.15.885.142 1.31-.03.427-.168.727-.508.903-1.018.16-.452.13-.91-.083-1.36-.142-.29-.483-.77-1.028-1.438l-.94-1.163c-.286-.354-.494-.685-.63-.994-.245-.575-.274-1.137-.09-1.674.245-.713.683-1.22 1.317-1.528.634-.31 1.34-.328 2.118-.06.32.11.678.323 1.07.64.4.31.63.473.694.496.17.064.307.057.4 0 .095-.06.19-.156.277-.295l.288.1-.72 3.1-.337-.116c.08-.98-.07-1.74-.455-2.272-.382-.53-.82-.875-1.314-1.05-.385-.127-.76-.135-1.128-.002-.36.126-.61.39-.75.794-.123.356-.12.708.014 1.038.128.34.376.728.74 1.17l.973 1.192c.607.737 1.002 1.363 1.183 1.87.172.51.163 1.038-.025 1.59-.255.735-.746 1.255-1.477 1.557-.72.306-1.515.306-2.38.01-.435-.15-.863-.39-1.28-.72-.416-.326-.658-.504-.727-.53-.163-.052-.294-.042-.386.04-.09.085-.166.18-.22.286l-.31-.107.61-3.136.323.106zM177.988 235.02l.095.265c-.344.127-.574.234-.69.32-.19.16-.253.348-.17.568.042.114.134.262.286.438.155.173.43.462.822.87l3.957 4.065.07-5.99c0-.264 0-.483-.016-.66-.015-.17-.04-.31-.076-.41-.096-.272-.28-.41-.55-.422-.147-.002-.388.044-.704.15l-.096-.258 2.86-1.038.084.234c-.278.153-.47.31-.565.48-.148.255-.234.693-.242 1.302l-.234 8.988-.212.072-6.24-6.427c-.527-.544-.908-.862-1.144-.954-.234-.1-.518-.095-.863.008l-.086-.245 3.714-1.354zM190.18 240.467c.528-.302.836-.558.942-.754.094-.203.02-.57-.234-1.087l-2.898-5.94c-.238-.495-.476-.766-.705-.83-.23-.065-.623.02-1.18.257l-.122-.244 3.96-1.932.12.252c-.536.29-.847.547-.933.768-.1.216-.02.57.215 1.06l2.9 5.948c.26.516.494.8.714.846.22.043.61-.046 1.173-.273l.122.235-3.957 1.935-.117-.243zM198.713 229.856c.48-.7.48-1.423-.006-2.18-.47-.72-1.084-1.023-1.85-.9-.41.063-.876.266-1.4.604-.35.227-.552.4-.6.5-.046.103-.007.244.11.43l2.002 3.078c.874-.618 1.456-1.126 1.743-1.532m-1.456 7.09c.448-.354.69-.645.714-.86.025-.222-.132-.586-.47-1.106l-3.507-5.4c-.283-.444-.537-.682-.756-.732-.22-.05-.573.05-1.045.303l-.146-.227 3.45-2.244c.72-.464 1.377-.765 1.978-.89 1.133-.247 2 .096 2.6 1.014.405.624.513 1.234.318 1.83-.186.595-.588 1.168-1.215 1.726l4.62 1.494c.29.086.536.13.752.114.218-.014.454-.085.72-.224l.14.224-2.008 1.306-5.456-1.908-.68.482 1.598 2.458c.3.46.558.71.78.75.22.027.577-.096 1.078-.358l.143.223-3.466 2.25-.143-.223zM201.214 222.888l6.525-5.286 1.653 1.913-.28.22c-.634-.505-1.133-.763-1.49-.778-.36-.02-.872.24-1.544.78l-.643.522 4.79 5.913c.36.446.654.666.88.66.226-.004.586-.18 1.082-.53l.172.213-3.37 2.728-.168-.21c.457-.436.697-.757.72-.982.016-.224-.172-.583-.58-1.08l-4.677-5.78-.647.52c-.638.516-.997.96-1.082 1.333-.08.374.072.91.458 1.63l-.28.228-1.522-2.015zM212.353 212.77l.203.182c-.366.455-.542.784-.545 1.016-.004.224.19.526.59.896l3.48 3.246c.57.53 1.088.868 1.55 1.01.853.253 1.656-.03 2.408-.838.835-.894 1.093-1.764.78-2.625-.177-.48-.61-1.042-1.302-1.69l-2.833-2.64c-.59-.546-1.026-.83-1.306-.82-.29 0-.633.177-1.04.54l-.204-.19 2.35-2.515.2.188c-.344.463-.5.835-.46 1.116.036.272.337.674.906 1.204l2.83 2.642c.754.693 1.232 1.36 1.432 1.978.38 1.15.017 2.318-1.092 3.507-1.093 1.178-2.224 1.623-3.38 1.336-.627-.158-1.28-.547-1.95-1.178l-3.4-3.163c-.397-.372-.706-.545-.934-.522-.225.012-.545.21-.96.592l-.2-.192 2.877-3.08zM223.805 209.707c.69.176 1.295.242 1.816.19.902-.085 1.605-.49 2.11-1.206.27-.39.384-.81.336-1.26-.043-.46-.287-.844-.73-1.147-.395-.28-.84-.382-1.336-.3-.316.055-.87.248-1.66.588l-1.373.588c-.423.178-.796.286-1.128.328-.628.08-1.173-.045-1.636-.37-.617-.433-.984-.99-1.104-1.688-.12-.694.05-1.377.522-2.055.196-.275.496-.56.91-.85.406-.298.63-.475.668-.532.11-.15.146-.278.11-.384-.03-.11-.098-.225-.207-.348l.177-.246 2.78 1.543-.204.293c-.92-.348-1.685-.41-2.308-.19-.612.224-1.072.546-1.373.973-.23.335-.336.693-.31 1.078.02.39.202.703.556.94.315.224.645.318 1.004.282.358-.038.8-.16 1.326-.396l1.41-.6c.88-.382 1.588-.596 2.127-.626.538-.025 1.045.13 1.52.46.638.45 1.005 1.064 1.09 1.85.095.782-.12 1.54-.645 2.295-.264.372-.612.717-1.046 1.034-.425.304-.66.49-.704.547-.1.14-.12.273-.072.384.054.108.124.205.214.288l-.19.27-2.846-1.454.197-.275z" clip-rule="evenodd" fill="#1C2957" fill-rule="evenodd"/><path d="M285.267 159.805c0-1.428-.582-2.717-1.522-3.65 5.34-5.424 4.838-10.782 4.367-15.594l-.26-3.02-.54.452c-.97.82-1.832 1.587-2.62 2.332 2.95-5.053 2.017-9.61 1.168-13.747l-.573-2.97-.496.502c-.756.793-1.404 1.516-2.04 2.237 2.2-5.184.844-9.518-.408-13.464l-.883-2.896-.438.554c-.672.87-1.24 1.657-1.797 2.442 1.642-5.385-.16-9.554-1.815-13.347l-1.177-2.787-.38.597c-.583.947-1.074 1.81-1.552 2.656 1.09-5.544-1.127-9.514-3.17-13.12l-1.467-2.655-.31.633c-1.14 2.365-1.993 4.36-2.55 6.227-.61-5.554-3.51-8.852-9.828-11.766l-.52-.242v.575c0 6.797 1.252 11.528 7.254 15.763-2.387-1.326-5.257-2.07-9.163-2.778l-.72-.128.322.654.23.458c1.688 3.42 3.786 7.633 7.64 10.45-.57-.177-1.078-.357-1.7-.538l-.698-.204.25.685.18.478c1.32 3.582 2.97 7.99 6.505 11.2-.542-.24-1.033-.472-1.63-.717l-.678-.28.182.71.125.498c.942 3.695 2.117 8.252 5.3 11.81-.513-.293-.978-.576-1.55-.88l-.637-.35.1.726.076.498c.535 3.69 1.21 8.217 3.84 12.036-.367-.258-.673-.494-1.066-.763l-.603-.41.03.73.02.517c.203 5.124.528 11.843 6.08 16.66-.718.884-1.17 2-1.17 3.23 0 .99.294 1.91.782 2.692-6.133 4.21-7.156 10.91-7.904 16.02l-.176 1.233.643-.348c.566-.306 1.025-.588 1.54-.88-3.176 3.56-4.352 8.11-5.29 11.806l-.31 1.21.675-.28c.6-.24 1.09-.474 1.635-.716-3.54 3.21-5.185 7.624-6.51 11.203l-.43 1.162.7-.204c.624-.18 1.133-.365 1.7-.54-3.855 2.82-5.953 7.03-7.642 10.455l-.55 1.11.717-.13c.638-.114 1.163-.24 1.752-.358-4.133 2.398-6.66 6.374-8.702 9.6l-.66 1.045.73-.055c3.93-.293 6.85-.73 9.328-1.767-6.357 3.578-8.08 8.15-8.788 14.884l-.06.575.547-.187c6.41-2.19 9.662-5.044 10.924-10.235.368 1.802.95 3.734 1.77 6.02l.24.667 1.748-2.502c2.476-3.465 5.193-7.29 4.49-13.194.43 1.026.92 2.106 1.486 3.283l.308.642 1.47-2.66c2.047-3.607 4.26-7.583 3.17-13.127.48.85.97 1.71 1.558 2.66l.372.603 1.187-2.797c1.653-3.794 3.452-7.964 1.805-13.348.56.78 1.127 1.575 1.804 2.443l.43.562.89-2.91c1.272-4.025 2.67-8.456.273-13.79.664.767 1.363 1.542 2.175 2.388l.487.513.58-2.984c.955-4.684 2.005-9.896-2.56-15.763 1.182-.944 1.952-2.38 1.952-4.005m1.978-20.736l.137 1.562c.14 1.423.28 2.863.28 4.31 0 3.495-.92 7.058-4.543 10.7-.78-.562-1.722-.904-2.74-.957.08-2.16-.12-3.267-.457-4.704.028-.203.043-.39.07-.607l.184-1.474c1.034-3.17 3.378-5.65 7.068-8.83m-7.784 8.674c0 .015-.013.116-.025.226-.533-1.18-1.25-2.21-2.068-3.192.61.33 1.183.685 1.887.967l.5.205v-.114l.05.153.426-.377c.11-.1.203-.196.31-.298-.433.77-.798 1.57-1.08 2.43m5.38-22.56c.134.68.3 1.54.3 1.54.417 2.03.837 4.084.837 6.21 0 3.615-1.29 7.446-5.825 11.697-.156-.488-.294-.94-.418-1.36-.088-3.51-.422-4.73-1.037-6.474.005-.204.005-.4.012-.622l.024-1.473c.703-3.272 2.775-5.975 6.107-9.52m-6.553 7.482l.07.158.364-.4c-.28.712-.548 1.43-.712 2.202l-.008.224c-.69-1.184-1.57-2.18-2.562-3.12.746.326 1.478.66 2.338.907l.526.154-.015-.125zm2.898-21.06c.198.664.456 1.5.456 1.5.78 2.454 1.568 4.94 1.568 7.642 0 3.177-1.16 6.657-4.65 10.697-.214-.49-.394-.923-.567-1.34-.452-3.46-.912-4.64-1.702-6.312l-.055-.61-.127-1.467c.36-3.325 2.13-6.234 5.08-10.11m-5.06-13.12c.274.64.614 1.444.614 1.444 1.207 2.76 2.43 5.568 2.43 8.83 0 2.798-1.014 5.972-3.6 9.692-.254-.448-.476-.85-.683-1.237-.814-3.396-1.396-4.523-2.357-6.1-.04-.194-.076-.39-.117-.6l-.28-1.448c.01-3.338 1.47-6.415 3.994-10.58m-.734 23.446c-.807-1.103-1.787-2-2.873-2.83.775.244 1.533.5 2.418.658l.537.095-.026-.116.08.145.325-.445c-.207.743-.396 1.488-.482 2.273 0 .014.008.115.02.22m-8.498-27.32c.226-2.568 1.226-5.255 2.833-8.657.332.608.762 1.386.762 1.386 1.69 2.973 3.407 6.007 3.407 9.886 0 2.465-.783 5.315-2.628 8.667-.305-.428-.57-.81-.825-1.175-1.16-3.29-1.855-4.347-2.974-5.816-.054-.19-.115-.378-.173-.583l-.434-1.414c-.03-.287-.038-.573-.05-.857.042-.497.065-.97.082-1.436m4.55 14.745c-.92-1.012-1.982-1.804-3.15-2.515.794.16 1.576.337 2.47.4l.545.04-.04-.115.102.14.28-.475c-.138.76-.245 1.517-.245 2.306 0 .016.02.115.04.22M257.23 80.403c6.437 3.112 8.983 6.572 8.983 13.095 0 .176-.024.384-.03.566-.01.248-.02.512-.036.772-.03.43-.038.83-.075 1.277-7.16-4.258-8.75-8.762-8.843-15.71m8.918 16.652v-.002l.002.016c.004.026.03.104.06.2-.542-.482-1.124-.87-1.714-1.254.535.353 1.045.71 1.654 1.055l-.002-.013m-10.983-3.412c4.766.906 8.027 1.882 10.56 4.157 0 .012.878 1.175.878 1.175.072.092.13.177.2.265 1.157 1.512 1.824 2.556 2.972 5.817.142.404.286.824.447 1.303-8.98-.945-12.407-7.36-15.057-12.718m5.68 10.956c4.643 1.4 7.783 2.71 10.062 5.24.003.013.75 1.255.75 1.255.06.1.112.19.173.287.99 1.63 1.547 2.735 2.35 6.1.102.418.2.847.31 1.34-8.84-1.876-11.574-8.612-13.645-14.22m4.498 11.488c4.476 1.88 7.46 3.513 9.46 6.262 0 .017.618 1.33.618 1.33l.14.307c.815 1.722 1.255 2.88 1.7 6.312.05.424.11.86.163 1.36-8.588-2.79-10.605-9.778-12.08-15.572m3.277 11.895c4.255 2.34 7.052 4.276 8.75 7.22 0 .02.475 1.39.475 1.39.038.11.068.208.11.313.63 1.8.95 3 1.028 6.464.008.426.018.865.022 1.366-8.253-3.672-9.526-10.83-10.386-16.753m2.194 12.177c3.985 2.767 6.567 4.98 7.953 8.093.003.027.327 1.43.327 1.43.028.118.05.215.08.326.298 1.267.495 2.203.495 3.774 0 .263-.024.613-.035.926-.137.01-.273.018-.403.04-.968.17-1.833.613-2.538 1.246-5.238-4.49-5.67-10.644-5.878-15.834m4.893 19.643c0-1.038.417-1.957 1.02-2.71.186-.235.372-.442.602-.632.57-.478 1.254-.776 2.018-.915.087-.018.17-.043.256-.054.164-.02.308-.096.48-.096.016 0 .02-.007.037-.007.077 0 .147.044.225.047.828.043 1.56.344 2.206.785.22.15.48.263.666.45.813.8 1.313 1.907 1.313 3.133 0 1.39-.69 2.58-1.694 3.388-.21.172-.43.32-.67.45-.618.333-1.296.574-2.047.574-.148 0-.275-.073-.417-.082-.104-.012-.202-.047-.3-.06-.153-.03-.3-.053-.444-.09-.094-.03-.196-.03-.29-.063-.69-.244-1.292-.627-1.772-1.154-.196-.21-.33-.465-.48-.715-.408-.665-.71-1.41-.71-2.248m-7.08 18.545c.757-5.175 1.83-11.3 7.603-15.212.596.695 1.37 1.224 2.257 1.52.145.05.282.102.433.136-.14 2.13-.444 3.187-.95 4.623-.04.106-.073.206-.11.318l-.504 1.462c-1.67 2.88-4.475 4.813-8.73 7.153m9.155-4.66c-.848.247-1.573.583-2.306.9.987-.936 1.867-1.922 2.545-3.097l.004-.004c.186.895.464 1.733.814 2.55-.036-.04-.06-.075-.1-.116l-.375-.414-.073.16.01-.127-.522.148zm-12.428 16.553c1.477-5.792 3.49-12.78 12.084-15.574-.06.5-.112.944-.165 1.37-.445 3.43-.883 4.59-1.7 6.308-.045.104-.095.2-.144.308l-.646 1.388c-1.965 2.69-4.947 4.322-9.427 6.2m9.593-3.672c-.872.156-1.62.408-2.39.65 1.08-.822 2.046-1.707 2.833-2.795l-.004.123c.08.824.27 1.597.492 2.365-.004-.004-.008-.004-.008-.01l-.33-.454-.086.14.03-.11-.538.092zm-14.096 15.165c2.074-5.608 4.816-12.35 13.65-14.228-.11.49-.21.92-.31 1.34-.802 3.36-1.36 4.473-2.35 6.098l-.17.287-.8 1.316c-2.232 2.477-5.372 3.785-10.02 5.187m9.922-2.65c-.884.065-1.657.238-2.443.4 1.158-.71 2.213-1.49 3.117-2.49l-.023.123c-.002.827.1 1.61.247 2.4l-.008-.008-.28-.49-.096.133.03-.108-.544.04zM255.18 212.69c2.65-5.362 6.074-11.773 15.057-12.72-.16.48-.31.898-.448 1.302-1.148 3.268-1.82 4.31-2.976 5.82-.062.09-.128.174-.2.267l-.924 1.223c-2.49 2.23-5.747 3.202-10.51 4.108m11.02-.49c-.087-.203-.126-.38-.22-.588l-.17-.37.057-.124-.11-.005-.012-.016-.01.016-.41-.016c-.89-.026-1.68.062-2.484.14 1.226-.58 2.364-1.247 3.37-2.146l-.036.12c-.108 1.01-.09 2 .025 2.99m-6.925 12.202c-.722 6.35-3.57 9.565-10.214 11.963.816-6.853 2.864-11.153 10.326-14.625-.117.875-.16 1.767-.11 2.662m.21-3.573c-.53.23-.985.48-1.46.726.495-.262 1-.526 1.473-.854-.01.045-.007.083-.015.127m-.216-.82c-2.706 1.957-6.05 2.58-10.88 2.986 3.208-5.08 7.225-11.232 16.35-11.172-.147.318-.27.582-.406.867-1.72 3.702-2.488 4.588-4.01 6.197l-.114.12-.94 1.002zm3.52 10.85l-.915 1.31c-1-2.847-1.66-5.21-1.862-7.37-.04-.43-.09-.86-.09-1.27 0-.885.086-1.754.273-2.63l.075-.167c.15-.334.483-1.128.483-1.128.03-.068.052-.13.08-.192.004-.006.02-.022.02-.022 1.538-1.617 2.333-2.47 4.11-6.285.186-.207.346-.397.546-.623 1.213 2.88 1.772 5.363 1.772 7.496 0 4.596-2.274 7.773-4.493 10.882m7.713-11.863l-.767 1.382c-1.815-3.848-2.92-6.795-2.92-9.72 0-.428.028-.863.072-1.3.008 0 .416-1.346.416-1.346.065-.205.12-.39.178-.583 1.12-1.467 1.816-2.524 2.98-5.818.252-.37.514-.744.82-1.174 1.84 3.355 2.628 6.208 2.628 8.672 0 3.878-1.72 6.914-3.407 9.887m6.25-12.594s-.34.808-.61 1.445c-2.526-4.165-3.99-7.243-3.99-10.653.007 0 .274-1.38.274-1.38.043-.21.077-.405.118-.603.957-1.573 1.537-2.7 2.353-6.092.213-.39.43-.785.685-1.238 2.582 3.722 3.6 6.9 3.6 9.69 0 3.264-1.226 6.073-2.43 8.83m6.467-20.816c0 2.697-.79 5.188-1.564 7.637l-.456 1.51c-2.95-3.88-4.72-6.79-5.08-10.183.003-.003.126-1.402.126-1.402.016-.21.032-.406.053-.603.788-1.668 1.247-2.848 1.7-6.313.176-.415.357-.852.574-1.34 3.492 4.037 4.646 7.518 4.646 10.694m2.77-12.374c0 2.123-.423 4.183-.84 6.212l-.292 1.543c-3.344-3.55-5.41-6.263-6.115-9.593v-.043c0-.238-.02-1.356-.02-1.356-.005-.16-.005-.294-.005-.446.484-1.39.796-2.473.943-4.625.155.013.307.047.464.047.93 0 1.79-.268 2.55-.703 2.507 3.18 3.317 6.14 3.317 8.965m-63.308-14.41l-.736 4.035c-.05.258-4.894 26.172-16.4 37.608 0 0-.828.894.04 1.718.874.825 2.912 2.553 4.795 4.025-8.117 9.708-22.894 21.82-48.523 27.795 18.25-9.713 59.99-38.354 59.99-97.167V90.28H80.986v46.536c0 58.813 41.74 87.454 59.996 97.167-25.633-5.974-40.414-18.087-48.53-27.795 1.885-1.472 3.59-2.943 4.79-4.025 0 0 .413-.26.413-.835 0-.578-.37-.883-.37-.883-11.505-11.437-16.348-37.35-16.4-37.608l-.735-4.034-1.52 3.808s-4.335 10.837-5.346 13.357c-2.038-1.84-14.102-12.758-14.102-12.758l.873 3.696c.23.976 4.274 17.752 11.007 31.16-2.167 1.345-4.486 2.715-6.827 3.964-.553.293-.78.965-.52 1.534 7.927 17.443 34.31 43.56 69.698 50.87.06.926.095 1.746.095 2.412 0 2.205 2.996 3.566 17.913 3.566 14.91 0 17.903-1.36 17.903-3.566 0-.666.037-1.486.098-2.412 35.392-7.31 61.774-33.427 69.7-50.87.26-.57.028-1.24-.524-1.534-2.338-1.25-4.66-2.62-6.82-3.963 6.727-13.41 10.77-30.185 11-31.16l.874-3.698-14.1 12.757c-1.01-2.52-6.868-17.164-6.868-17.164m-13.13 43.608c1.76-1.005 3.464-3.22 5.242-5.543 1.315-1.718 3.242-4.234 4.215-4.505-.564 1.474-2.6 6.128-7.107 11.94-.766-.587-1.547-1.22-2.352-1.89m-45.564 34.094c.905.05 1.973.13 3.002.238-.977.273-2.236.533-3.777.775-.003-.458-.008-.803-.008-1.083.362.035.784.07.784.07m-79.72-99.69V93.565h134.298v43.252c0 72.626-65.57 97.802-66.234 98.05l-.91.336-.92-.336c-.658-.248-66.234-25.424-66.234-98.05m77.015 97.47c-.106.105-.196.23-.27.374-.11.157-.18.325-.18.506v2.67c-2.358.27-5.186.436-8.356.477l1-.37c.14-.05 3.155-1.217 7.807-3.657m-19.455.376c-.07-.143-.166-.27-.273-.38 4.653 2.444 7.67 3.61 7.81 3.662l.996.37c-3.166-.04-5.998-.21-8.353-.478v-2.67c0-.18-.075-.35-.18-.504m-2.978 1.844s.425-.034.782-.07c-.005.28-.005.626-.01 1.082-1.537-.242-2.798-.502-3.777-.774 1.032-.11 2.097-.187 3.004-.238M63.36 170.18C66.81 173.297 74.22 180 74.22 180l.63-1.578s2.88-7.2 4.54-11.342c1.733 7.503 6.488 24.41 15.414 34.05-1.336 1.166-2.628 2.216-3.87 3.173-5.42-6.987-7.274-12.324-7.285-12.445-.034-.43-.298-.88-.69-1.057-.39-.176-.847-.206-1.19.052-.056.043-3.74 2.77-8.703 5.954-4.742-9.543-8.15-20.924-9.703-26.627m17.957 21.38c-.015.067-.022.152-.022.247 0-.005-.002-.005-.002-.005 0-.08.008-.166.024-.243m50.95 43.348c-.016.002-.03-.015-.05-.013-.025.004-.034.03-.06.037-.015.006-.04.006-.057.012-.06.02-.084.084-.14.113-.154.077-.292.18-.395.31-.103.163-.17.346-.196.543-.005.03-.028.05-.03.08-.01-.023-.043-.023-.048-.04l.025.066c-.002.02-.032.02-.032.04 0 .06.004.12.013.182l.004.014v.003l.007.046c.08.572 1.313 9.208 1.897 15.567-33.587-7.186-58.667-31.49-66.81-48.334 1.977-1.084 3.912-2.236 5.742-3.363.688-.427 1.355-.846 2.008-1.26 3.338-2.13 6.125-4.07 7.67-5.175.826 2.523 3.147 6.908 7.208 11.988.493.617 1.005 1.24 1.55 1.872 8.073 9.39 21.982 20.58 43.542 26.943-.684.1-1.33.214-1.85.37m35.916 8.57c-.357 2.864-.728 6.08-.963 8.832-.08.91-.136 1.75-.18 2.527-.037.645-.062 1.258-.07 1.775-.422.34-2.775 1.44-15.55 1.44-13.553 0-15.407-1.25-15.64-1.502.003-.106.003-.22.003-.337 0-.41-.015-.882-.038-1.383-.034-.764-.088-1.614-.162-2.53-.22-2.71-.58-5.938-.936-8.82-.235-1.878-.46-3.62-.642-4.947.015.006.038.01.055.016 1.418.536 3.345.973 5.542 1.314.013.005.023.005.038.01.748.112 1.522.214 2.325.31h.04c2.972.34 6.25.517 9.416.517 3.16 0 6.438-.177 9.41-.515l.04-.002c.8-.095 1.576-.196 2.32-.308.013-.006.03-.006.044-.01 2.195-.342 4.122-.78 5.538-1.316.023-.007.043-.01.057-.017-.18 1.327-.41 3.066-.646 4.946m68.252-39.946c-8.14 16.845-33.218 41.148-66.812 48.337.585-6.362 1.82-15 1.902-15.57l.01-.045v-.017c.01-.056.01-.11.01-.162 0-.02-.034-.02-.034-.04 0-.006.03-.086.03-.086-.007.02-.042.03-.058.05-.036-.47-.287-.904-.75-1.056-.546-.178-1.255-.304-2.007-.406 21.552-6.367 35.458-17.554 43.53-26.943.548-.633 1.057-1.255 1.552-1.872 4.064-5.08 6.38-9.465 7.206-11.988 1.55 1.106 4.336 3.046 7.672 5.173.648.416 1.316.836 2.005 1.262 1.836 1.128 3.764 2.276 5.743 3.364m-14.92-11.975c.015.076.024.16.024.238 0 0-.004.004-.004.01 0-.096-.004-.18-.02-.25m8.253 5.243c-4.87-3.123-8.482-5.783-8.663-5.918-.667-.744-1.403-.94-1.922-.94-2.075-.002-4.017 2.543-6.27 5.486-1.102 1.443-2.473 3.22-3.658 4.282 8.13-9.805 12.537-25.478 14.19-32.63 1.655 4.143 5.17 12.92 5.17 12.92s7.404-6.702 10.853-9.82c-1.553 5.702-4.963 17.083-9.7 26.62M47.53 213.237c.587.117 1.115.248 1.754.363l.717.128-.553-1.114c-1.687-3.42-3.785-7.63-7.637-10.45.57.176 1.078.36 1.695.54l.702.204-.433-1.166c-1.323-3.578-2.967-7.988-6.506-11.195.545.238 1.034.472 1.633.713l.675.28-.305-1.2c-.94-3.7-2.12-8.257-5.302-11.817.518.293.98.576 1.55.88l.642.35-.18-1.224c-.742-5.112-1.76-11.818-7.898-16.028.488-.786.783-1.705.783-2.694 0-1.23-.455-2.347-1.176-3.232 5.56-4.82 5.88-11.54 6.08-16.67l.05-1.235-.604.41c-.39.265-.694.506-1.06.76 2.63-3.815 3.3-8.338 3.836-12.025l.18-1.23-.642.35c-.57.303-1.032.586-1.55.88 3.184-3.56 4.362-8.12 5.302-11.822l.307-1.197-.68.28c-.595.246-1.084.477-1.632.716 3.54-3.21 5.186-7.616 6.51-11.195l.43-1.167-.698.204c-.622.18-1.134.363-1.7.54 3.854-2.818 5.95-7.028 7.64-10.452l.55-1.112-.72.128c-3.88.703-6.734 1.446-9.09 2.732 5.946-4.22 7.18-8.942 7.18-15.716v-.575l-.523.24c-6.32 2.917-9.217 6.216-9.823 11.777-.555-1.872-1.41-3.87-2.548-6.238l-.307-.64-.347.63-1.125 2.03c-2.044 3.607-4.26 7.578-3.173 13.128-.475-.852-.968-1.71-1.558-2.66l-.37-.605-.282.662-.902 2.135c-1.656 3.793-3.46 7.962-1.81 13.35-.555-.784-1.126-1.574-1.8-2.445l-.437-.563-.207.69-.68 2.224c-1.245 3.944-2.6 8.275-.4 13.46-.634-.723-1.284-1.45-2.047-2.243l-.49-.514-.137.706-.44 2.275c-.848 4.142-1.78 8.693 1.173 13.75-.794-.748-1.65-1.513-2.624-2.334l-.54-.46-.06.718-.2 2.31c-.472 4.813-.974 10.174 4.368 15.595l.52.518c.19-.19.444-.3.666-.45-.21-.194-.37-.39-.562-.582-3.622-3.638-4.542-7.205-4.542-10.696 0-1.452.14-2.89.28-4.315l.134-1.562c3.69 3.18 6.03 5.66 7.084 8.9 0 .05.167 1.395.167 1.395.03.223.046.41.074.615-.338 1.427-.524 2.565-.452 4.706.006.223.028.496.04.748.076-.004.136-.042.212-.042.01 0 .02.006.034.006l-.004.016h.092c.135.026.265.066.403.084-.005-.05-.007-.09-.01-.14-.04-.592-.07-1.14-.07-1.575 0-1.572.2-2.507.5-3.777l.076-.322.35-1.5c1.362-3.042 3.944-5.255 7.93-8.023-.208 5.19-.638 11.345-5.877 15.833-.193.16-.43.31-.634.47.226.188.417.395.6.63.605.753 1.02 1.672 1.02 2.71 0 .84-.3 1.583-.707 2.25-.153.25-.29.504-.482.715-.55.596-1.266.99-2.068 1.215.014.242.026.46.04.673l-.002-.007-.038-.665c-.147.04-.294.066-.45.09-.24.04-.454.144-.705.144-.755 0-1.43-.24-2.053-.573-.24-.133-.455-.284-.665-.452-.172.207-.316.405-.476.615-4.56 5.867-3.515 11.08-2.558 15.762l.575 2.978.494-.507c.81-.846 1.51-1.62 2.177-2.385-2.402 5.336-1.002 9.763.275 13.797l.882 2.894.436-.552c.674-.87 1.244-1.66 1.8-2.444-1.644 5.388.156 9.557 1.81 13.347l1.182 2.792.376-.596c.588-.95 1.08-1.81 1.557-2.657-1.09 5.543 1.125 9.515 3.168 13.12l1.468 2.652.314-.633c.566-1.177 1.057-2.257 1.487-3.284-.704 5.9 2.014 9.73 4.49 13.194l1.74 2.495.246-.66c.82-2.29 1.403-4.223 1.778-6.02 1.26 5.19 4.506 8.046 10.924 10.234l.543.186-.057-.575c-.713-6.758-2.45-11.334-8.865-14.92 2.51 1.07 5.446 1.51 9.406 1.804l.73.055-.67-1.052c-2.036-3.232-4.563-7.2-8.695-9.602m-9.038-97.148c-1.476 5.8-3.49 12.783-12.083 15.574.055-.5.11-.933.163-1.355.445-3.436.885-4.596 1.702-6.32.048-.103.088-.195.14-.3l.654-1.397c1.96-2.69 4.946-4.32 9.422-6.202m-12.428 16.55c.854-.247 1.578-.58 2.32-.9-.99.93-1.868 1.918-2.543 3.082l-.002-.123c-.168-.804-.436-1.553-.733-2.292l.002.002.377.416.068-.15-.013.118.524-.153zm2.842-12.878c.87-.156 1.624-.41 2.39-.653-1.077.825-2.05 1.71-2.843 2.796l.012-.118c-.085-.818-.274-1.592-.494-2.36.003 0 .003 0 .005.003l.332.456.086-.15-.025.12.538-.094zm14.088-15.16c-2.074 5.607-4.81 12.347-13.644 14.222.11-.493.207-.92.31-1.34.796-3.364 1.356-4.472 2.344-6.097l.177-.29.795-1.313c2.234-2.473 5.374-3.783 10.02-5.18m-9.924 2.644c.886-.064 1.665-.237 2.457-.4-1.16.71-2.224 1.49-3.125 2.488l.023-.12c.002-.822-.104-1.61-.244-2.396l.004.002.283.488.096-.132-.036.11.544-.04zM46.6 80.404c-.087 6.95-1.678 11.454-8.84 15.71-.04-.497-.05-.95-.076-1.428-.01-.18-.023-.362-.03-.537-.006-.21-.033-.447-.033-.652 0-6.52 2.548-9.982 8.98-13.094m-7.367 15.68c-.547.363-1.096.715-1.594 1.16l.035-.116c.002-.016-.002-.032 0-.05.573-.327 1.05-.66 1.558-.993m-1.996 2.885l.928-1.223c2.48-2.223 5.74-3.196 10.51-4.102-2.652 5.36-6.077 11.773-15.062 12.718.162-.478.307-.894.447-1.3 1.148-3.263 1.82-4.308 2.974-5.82.067-.09.13-.177.203-.273m-3.89-11.63l.767-1.385c1.653 3.51 2.67 6.26 2.846 8.936.015.347.027.693.054 1.056-.008.34-.018.682-.054 1.03-.006 0-.416 1.34-.416 1.34-.06.207-.12.394-.176.586-1.118 1.466-1.815 2.527-2.98 5.822-.253.364-.517.745-.822 1.17-1.84-3.35-2.627-6.2-2.627-8.666 0-3.88 1.723-6.915 3.408-9.89m-6.252 12.59s.342-.802.612-1.442c2.528 4.166 3.988 7.244 3.988 10.653-.007.003-.273 1.378-.273 1.378l-.116.596c-.958 1.578-1.543 2.705-2.352 6.1-.212.39-.43.79-.687 1.238-2.583-3.723-3.6-6.896-3.6-9.694 0-3.262 1.226-6.068 2.428-8.83m-6.465 20.816c0-2.696.788-5.183 1.562-7.632l.458-1.508c2.95 3.88 4.725 6.788 5.08 10.183-.003.005-.125 1.394-.125 1.394-.02.215-.036.413-.054.612-.79 1.672-1.25 2.852-1.704 6.317-.172.414-.354.848-.567 1.333-3.494-4.04-4.65-7.52-4.65-10.7m-2.77 12.19c0-2.125.422-4.18.84-6.21 0 0 .163-.857.295-1.54 3.34 3.548 5.41 6.257 6.116 9.59l.022 1.408.01.614c-.612 1.75-.948 2.968-1.036 6.484-.124.42-.263.87-.416 1.354-4.535-4.252-5.83-8.082-5.83-11.698m6.546 15.003l-.014-.117c-.29-.896-.662-1.725-1.11-2.523.115.105.21.21.327.317l.422.376.048-.15v.11l.507-.204c.695-.278 1.257-.63 1.865-.957-.815.976-1.53 1.99-2.046 3.147m.42-3.2c.005-.5.015-.94.025-1.363.085-3.47.4-4.665 1.03-6.466.04-.105.07-.2.108-.31l.506-1.46c1.673-2.882 4.473-4.815 8.725-7.154-.865 5.92-2.14 13.082-10.393 16.754M48.66 212.69c-4.767-.907-8.025-1.878-10.557-4.16-.002-.01-.88-1.17-.88-1.17-.074-.094-.135-.178-.203-.268-1.153-1.515-1.826-2.556-2.974-5.825-.14-.403-.287-.82-.444-1.297 8.982.947 12.407 7.358 15.058 12.72m-10.634-1.448l-.166.37c-.082.18-.116.335-.193.52.102-.95.113-1.886.012-2.852-.003-.015-.03-.112-.063-.218 1.02.915 2.168 1.59 3.402 2.175-.81-.08-1.61-.167-2.505-.14l-.412.015-.012-.016-.005.016-.116.004.056.126zm-5.475-12.086l-.095-.133-.278.48c.135-.76.242-1.52.242-2.308l-.04-.224c.918 1.016 1.983 1.803 3.15 2.517-.795-.162-1.578-.335-2.47-.4l-.545-.04.036.11zm10.43 2.576c-4.642-1.397-7.78-2.705-10.06-5.238-.003-.012-.754-1.258-.754-1.258-.063-.1-.116-.19-.175-.287-.988-1.63-1.547-2.74-2.35-6.102-.096-.417-.196-.847-.306-1.34 8.84 1.88 11.573 8.62 13.647 14.224m-14.604-15.14l-.082-.14-.326.442c.215-.742.4-1.482.483-2.27 0-.014-.005-.11-.015-.228.806 1.105 1.784 2.004 2.866 2.835-.77-.244-1.533-.497-2.41-.658l-.54-.092.026.11zm10.103 3.65c-4.476-1.876-7.462-3.508-9.46-6.262 0-.015-.615-1.324-.615-1.324l-.142-.304c-.815-1.725-1.257-2.883-1.7-6.325-.055-.422-.112-.86-.166-1.358 8.593 2.794 10.607 9.777 12.082 15.573m-12.94-16.58l-.07-.152-.377.415-.09.106c.348-.807.628-1.633.815-2.508l.002-.05c.69 1.188 1.568 2.186 2.565 3.13-.745-.33-1.476-.662-2.335-.91l-.524-.15.013.12zm2.066-10.525c5.775 3.913 6.845 10.037 7.6 15.212-4.256-2.34-7.055-4.276-8.756-7.22 0-.02-.475-1.395-.475-1.395l-.112-.318c-.24-.68-.427-1.284-.58-1.953-.005-.037-.018-.07-.026-.108-.063-.29-.115-.61-.162-.945-.014-.08-.03-.15-.04-.236-.044-.324-.075-.697-.106-1.082-.01-.103-.016-.203-.027-.3 1.065-.262 1.99-.848 2.683-1.654m-2.978 1.716l.006.024-.25.002c.082-.01.166-.01.244-.026m-5.645 16.113l-.3-1.544c-.414-2.03-.836-4.084-.836-6.212 0-2.82.813-5.778 3.318-8.964.755.435 1.62.704 2.55.704.158 0 .308-.03.456-.048.148 2.177.466 3.225.955 4.626-.005.147-.005.28-.007.44l-.027 1.477c-.702 3.267-2.768 5.977-6.107 9.522m3.657 13.765c-.2-.67-.455-1.503-.455-1.503-.78-2.454-1.566-4.942-1.566-7.64 0-3.176 1.153-6.66 4.647-10.698.212.484.395.918.564 1.332.457 3.468.916 4.65 1.707 6.317.02.202.036.4.055.616l.128 1.467c-.356 3.32-2.13 6.225-5.08 10.11m5.056 13.12l-.61-1.45c-1.203-2.758-2.43-5.567-2.43-8.83 0-2.797 1.017-5.97 3.6-9.69.254.447.475.847.684 1.237.813 3.39 1.394 4.52 2.355 6.092l.116.602.28 1.45c-.006 3.34-1.466 6.415-3.994 10.588M34.1 220.38c-.336-.607-.765-1.387-.765-1.387-1.687-2.974-3.408-6.005-3.408-9.884 0-2.464.787-5.317 2.63-8.673.302.43.566.806.818 1.175 1.162 3.293 1.858 4.35 2.978 5.818.06.192.118.383.18.59l.43 1.41c.045.416.065.832.065 1.247 0 2.885-1.103 5.84-2.93 9.702m9.733 4.444c-.207 2.146-.868 4.5-1.865 7.347-.4-.57-.913-1.31-.913-1.31-2.222-3.105-4.493-6.286-4.493-10.88 0-2.135.557-4.618 1.772-7.497l.54.62c1.777 3.817 2.576 4.67 4.11 6.29l.022.02c.03.066.056.128.086.2l.478 1.136.094.217c.178.845.263 1.685.263 2.544 0 .424-.05.872-.094 1.314m.528-4.077c0-.003-.02-.05-.026-.065.517.354 1.052.654 1.6.932-.508-.264-1-.527-1.564-.78-.006-.03-.002-.06-.01-.087m10.417 15.618c-6.625-2.392-9.474-5.595-10.207-11.922.052-.908.016-1.813-.104-2.7 7.45 3.472 9.5 7.772 10.31 14.622M44.518 219.96c-.002-.006-.64-.688-.888-.953-.055-.06-.114-.12-.114-.12-.82-.86-1.417-1.51-2.063-2.5v-.003c-.554-.846-1.157-1.987-1.952-3.693-.13-.288-.257-.548-.4-.866 9.123-.06 13.14 6.09 16.352 11.17-4.836-.404-8.18-1.03-10.935-3.033m151.36-95.9c-.205.41-.406.823-.657 1.207v11.08h.656V124.06zm0 46.697h-.657v23.556c.218-.3.44-.594.656-.9v-22.656zm0-71.94h-.657v13.648c.25.384.452.797.656 1.207V98.816zm-3.398 26.723c1.642-1.75 2.67-4.09 2.67-6.674 0-2.584-1.028-4.923-2.67-6.674v13.348zm6.788-26.724h-.658v37.53h.658v-37.53zm0 71.94h-.658v18.536c.223-.352.44-.713.658-1.072v-17.463zm3.4.002h-.66v12.687c.216-.404.447-.794.66-1.2V170.76zm-16.974-63.63v-8.312h-.662v8.31c.117-.002.216-.033.332-.033.113 0 .216.03.33.034m-3.398 20.984c.873.29 1.783.477 2.736.51v-19.51c-.953.037-1.863.222-2.736.51v18.49zm0-29.294h-.656v8.937c.215-.07.434-.144.656-.205v-8.732zM178.9 126.16c.814.718 1.722 1.328 2.74 1.747v-18.082c-1.018.42-1.926 1.028-2.74 1.75v14.584zm10.184-27.344h-.653v8.732c.224.06.44.135.654.205v-8.937zm-3.39 29.805c.95-.033 1.864-.22 2.737-.51v-18.49c-.872-.29-1.785-.473-2.736-.51v19.51zm3.39-.713c1.02-.42 1.927-1.03 2.743-1.748v-14.586c-.816-.72-1.722-1.33-2.743-1.75v18.083zm3.395-29.09h-.653v10.225c.23.155.434.34.652.51V98.816zm13.578 0h-.658v37.53h.658v-37.53zM181.64 136.34h.657v-6.158c-.22-.06-.44-.132-.657-.205v6.362zm3.392-5.736v5.74h.662v-5.74c-.114.005-.217.034-.33.034-.116 0-.215-.03-.332-.034m0 75.71c.223-.222.44-.45.662-.673v-34.886h-.662v35.56zm-3.392 3.272c.22-.205.44-.394.657-.603v-38.23l-.657-.003v38.836zm-3.393-73.246h.654v-7.654c-.23-.15-.434-.337-.653-.51v8.164zm.654-37.526h-.653v10.736c.22-.17.422-.355.654-.51V98.816zm-.653 113.783c.215-.183.438-.37.654-.563v-41.285h-.653V212.6zm27.81-41.842h-.655v5.64c.22-.51.44-1.026.656-1.548v-4.092zm3.4-71.942h-.66v37.532h.66V98.816zm3.393 0h-.658v37.532h.658V98.816zm-10.183 0h-.658v37.53h.657v-37.53zm-10.84 37.53h.652v-8.168c-.22.174-.424.36-.653.51v7.658zm-3.396 0h.654v-6.367c-.213.072-.43.144-.653.204v6.162zm3.397 62.386c.217-.27.438-.537.652-.81v-27.165h-.653v27.975zm-3.396 3.984c.22-.246.437-.502.654-.75v-31.21h-.653v31.96zm-33.29-31.968h-.658v10.88c.224.06.44.132.66.204v-11.084zm-31.21-34.412h.658v-8.158c-.22.174-.424.36-.657.51v7.648zm-3.395-28.788c.22.06.44.133.655.205v-8.937h-.655v8.732zm3.396 104.49l.658.56v-41.853h-.657v41.292zm-13.578-75.707h.656v-7.642c-.233-.15-.435-.337-.656-.506v8.15zm16.974.006h.655V124.06c-.204.414-.407.827-.654 1.21v11.066zm-6.79 72.646c.218.21.436.4.654.603v-38.843h-.655v38.24zm6.79 5.873c.218.176.438.36.655.53v-44.64h-.654v44.11zm-3.395-105.813c.234.155.438.34.658.51V98.816h-.657v10.226zm-10.183-1.29c.218-.07.434-.143.656-.204v-8.732h-.656v8.937zm3.396-.625c.11-.003.214-.034.327-.034.114 0 .218.03.33.034v-8.31h-.657v8.31zm-3.396 94.84c.22.247.437.503.656.745v-31.97h-.656v31.224zm-3.395-92.415c.22-.17.423-.355.656-.51V98.816h-.656v10.736zm3.395 26.78h.656v-6.148c-.222-.06-.44-.132-.656-.205v6.35zm3.396-5.726v5.725h.657v-5.724c-.112.005-.216.034-.33.034-.113 0-.216-.03-.327-.034m0 75.032c.218.228.436.456.657.68V170.74h-.657v34.898zm10.183-93.174c.247.382.45.795.655 1.21V98.815h-.654v13.648zm-6.79 23.872h.654v-6.357c-.216.072-.435.144-.655.204v6.152zm23.764 47.296c.22-.173.423-.353.657-.51V170.75h-.657v12.884zm0-47.294h.657V98.816h-.657v37.522zm-3.396-.002h.66v-37.52h-.66v37.52zm3.396 89.77c.22.122.445.243.657.358V202.77c-.234-.152-.436-.336-.657-.51v23.847zm33.947-113.913c-1.642 1.75-2.67 4.09-2.67 6.674 0 2.584 1.028 4.923 2.67 6.674v-13.347zm-30.55 69.64c.214-.073.43-.144.652-.206v-10.88h-.654v11.085zm0 46.022c.223.11.445.22.652.32v-23.91c-.222-.06-.44-.133-.654-.205v23.795zm-10.186-5.73c.218.14.44.282.657.418v-51.798h-.656v51.38zm3.394-34.374c.207-.41.408-.825.66-1.204v-15.8h-.66v17.005zm-6.79 32.14l.658.44v-49.585h-.657v49.144zm-3.393-83.554h.658v-37.52h-.657v37.52zm3.395 0h.657v-37.52h-.657v37.52zm-3.394 81.138l.658.487v-47.215h-.657v46.73zm10.184 6.73c.228.132.436.248.66.376v-25.23c-.25-.38-.453-.798-.66-1.204v26.057zm-3.393-87.868h.656v-37.52h-.655v37.52zm10.186.002h.653V98.816h-.654v37.522zm14.232 34.414h-.656v15.79c.246.383.45.795.656 1.21v-17zm3.395-71.936h-.652v37.526h.653V98.816zm-3.395 99.33c-.205.41-.41.824-.656 1.207v25.227c.22-.13.43-.244.656-.377v-26.057zm3.395-27.394h-.652v51.79c.214-.132.435-.278.653-.413V170.75zm-3.395-71.936h-.656v37.522l.656.004V98.816zm-3.394 0h-.66v37.522h.66V98.816zm0 103.45c-.22.168-.426.352-.66.504v23.694c.215-.11.44-.236.66-.357v-23.842zm0-31.518h-.66v12.375c.234.152.44.336.66.504v-12.88zm16.974.004h-.655v44.634c.217-.17.436-.355.655-.524v-44.11zm0-45.484c-.25-.385-.453-.797-.655-1.207v12.283h.655v-11.075zM155.14 98.816h-.658v37.522h.66V98.816zm20.368 0h-.655v14.856c.202-.41.405-.823.655-1.207v-13.65zm-3.394 71.936h-.66v47.21c.218-.162.437-.325.66-.488v-46.722zm-3.398-71.936h-.656v37.526h.656V98.816zm0 71.936h-.656v49.582l.656-.44V170.75zm3.398-71.936h-.66v37.526h.66V98.816zm-20.37 130.61v-24.738c-.11.004-.213.033-.323.033-.115 0-.22-.028-.33-.032v24.738c.108.044.236.1.33.14.088-.04.223-.096.325-.14m-48.18-93.095h.656V98.817h-.656v37.515zm0 51.882c.217.36.433.72.654 1.075V170.74h-.656v17.472zm-3.398-5.97c.212.41.44.795.657 1.2V170.74h-.657v11.503zm0-45.91h.657V98.815h-.657v37.515zm6.79-22.66c.205-.414.408-.825.657-1.21V98.816h-.657v14.857zm0 79.738c.22.306.44.598.657.9v-23.57h-.657v22.67zm0-57.08h.657v-11.06c-.25-.383-.452-.796-.657-1.21v12.27zm3.395 61.588c.217.277.437.542.656.814v-27.99h-.656v27.176zm-13.578-61.59h.658V98.816h-.658v37.512zm54.97-37.512h-.655v37.522h.655V98.816zm3.397 105.244c-.22.072-.434.144-.658.205v23.914c.207-.1.43-.214.66-.323V204.06zm-3.395-22.855v-10.457h-.656v10.457c.11-.005.215-.034.33-.034.11 0 .215.03.325.035m-54.97-6.364c.21.52.432 1.036.655 1.548v-5.65h-.656v4.103zM89.98 136.33h.658V98.816h-.658v37.512zm3.397 0h.655V98.816h-.656v37.512z" fill="#1C2957"/><path d="M151.42 10.58C72.59 10.58 8.454 74.716 8.454 153.545c0 78.826 64.134 142.96 142.964 142.96 78.827 0 142.956-64.134 142.956-142.96 0-78.83-64.13-142.963-142.957-142.963m128.568 134.76c-.242-.734-.445-1.38-.62-1.974.017.608.02 1.27.02 2.04-9.407-3.816-10.356-12.025-11.253-18.152 5 2.693 7.766 4.663 9.556 7.77.245.724.452 1.293.638 1.823.008-.627.03-1.3.037-2.147.746-3.504 2.767-6.235 6.693-10.338 1.04 6.1 3.93 12.898-5.07 20.98m-1.527-13.18c-.314-.713-.582-1.332-.82-1.907.08.606.158 1.266.238 2.032-9.76-2.813-11.558-10.88-13.092-16.874 5.258 2.156 8.21 3.824 10.32 6.725.314.696.58 1.24.82 1.75-.057-.624-.103-1.3-.19-2.138.38-3.566 2.1-6.492 5.576-10.984 1.672 5.96 5.26 12.418-2.85 21.395m-2.895-12.948c-.387-.67-.72-1.26-1.012-1.806.14.595.29 1.24.444 1.99-9.998-1.775-12.632-9.61-14.784-15.41 5.45 1.593 8.565 2.946 10.968 5.61.385.654.704 1.17.997 1.65-.12-.614-.234-1.28-.406-2.105 0-3.585 1.41-6.67 4.394-11.503 2.283 5.75 6.53 11.8-.6 21.575m-9.054-22.196c-.073-.694-.044-1.38-.008-2.065-.027.612-.03 1.19-.096 1.852-7.973-4.522-9.586-9.286-9.586-17.05 6.985 3.223 9.87 6.836 9.72 14.403.296-2.587 1.338-5.302 3.138-9.038 2.874 5.482 7.72 11.057 1.657 21.52-.458-.626-.85-1.18-1.202-1.693.202.576.414 1.207.652 1.937-10.13-.72-13.564-8.237-16.315-13.782 5.596 1.014 8.834 2.034 11.494 4.434.455.614.823 1.093 1.168 1.54-.18-.602-.374-1.25-.624-2.056M151.42 40.752c62.287 0 112.79 50.5 112.79 112.793 0 62.29-50.503 112.793-112.79 112.793-62.295 0-112.796-50.502-112.796-112.793 0-62.294 50.5-112.793 112.795-112.793M34.16 85.117c1.797 3.735 2.838 6.45 3.134 9.037-.15-7.567 2.737-11.18 9.72-14.404 0 7.765-1.613 12.53-9.586 17.052-.065-.66-.067-1.24-.096-1.85.04.684.067 1.37-.006 2.064-.254.805-.442 1.454-.624 2.054.34-.45.714-.927 1.167-1.54 2.662-2.4 5.898-3.42 11.49-4.433-2.75 5.545-6.185 13.062-16.316 13.783.237-.73.45-1.358.653-1.932-.353.51-.74 1.063-1.197 1.688-6.064-10.463-1.215-16.038 1.66-21.52M27.666 97.64c2.99 4.833 4.397 7.918 4.397 11.504-.168.825-.287 1.49-.407 2.105.294-.477.612-.994 1-1.65 2.398-2.664 5.51-4.017 10.965-5.61-2.152 5.8-4.785 13.634-14.782 15.41.16-.75.305-1.396.443-1.99-.296.546-.626 1.136-1.01 1.806-7.13-9.775-2.886-15.827-.606-21.575m-5.144 13.128c3.478 4.49 5.2 7.417 5.577 10.984-.082.84-.13 1.512-.185 2.136.24-.508.504-1.054.82-1.748 2.106-2.9 5.06-4.57 10.318-6.725-1.53 5.994-3.332 14.06-13.09 16.874.08-.763.156-1.42.234-2.024-.237.57-.504 1.19-.82 1.898-8.11-8.976-4.522-15.435-2.854-21.394M18.78 124.36c3.926 4.104 5.946 6.835 6.692 10.34.007.845.027 1.52.037 2.147.187-.53.393-1.1.635-1.824 1.794-3.106 4.554-5.077 9.558-7.77-.9 6.126-1.843 14.336-11.256 18.153 0-.765.008-1.428.023-2.034-.18.592-.376 1.234-.616 1.968-9.004-8.08-6.11-14.88-5.074-20.98m2.297 39.323c-1.26-.86-2.138-2.236-2.138-3.875 0-1.466.69-2.726 1.727-3.603-6.446-6.277-4.723-12.457-4.372-17.934 4.334 3.68 6.625 6.18 7.733 9.59.095.838.19 1.505.262 2.124.133-.544.276-1.134.44-1.88 1.46-3.272 4.002-5.522 8.694-8.72-.218 5.374-.323 12.32-6.232 17.18.797.85 1.306 1.983 1.306 3.243 0 1.032-.4 1.943-.96 2.72 6.54 4.21 7.367 11.18 8.154 16.553-5.003-2.694-7.765-4.665-9.557-7.77-.24-.73-.45-1.305-.638-1.835-.01.58-.032 1.202-.036 1.973-.746 3.504-2.763 6.232-6.69 10.34-.915-5.363-3.252-11.265 2.307-18.105m4.288 10.492c.314.705.58 1.326.82 1.898-.08-.603-.154-1.265-.236-2.03 9.758 2.817 11.56 10.884 13.09 16.877-5.256-2.152-8.21-3.82-10.316-6.723-.315-.692-.58-1.238-.82-1.746.053.624.1 1.296.183 2.136-.375 3.566-2.1 6.487-5.574 10.98-1.67-5.954-5.257-12.42 2.852-21.39m2.894 12.945c.385.67.715 1.262 1.01 1.807-.14-.6-.285-1.242-.444-1.992 10 1.78 12.632 9.613 14.783 15.417-5.453-1.593-8.566-2.948-10.964-5.614-.39-.658-.71-1.174-1-1.658.117.62.235 1.282.405 2.113 0 3.586-1.407 6.67-4.394 11.506-2.283-5.754-6.524-11.804.603-21.58m4.228 12.575c.455.63.845 1.18 1.196 1.69-.2-.57-.413-1.204-.65-1.93 10.13.722 13.565 8.236 16.315 13.782-5.594-1.01-8.83-2.035-11.494-4.433-.454-.613-.827-1.095-1.167-1.54.18.6.37 1.25.624 2.056.374 3.56-.703 6.782-3.17 11.898-2.87-5.483-7.722-11.056-1.656-21.523m11.69 24.99c-.18 2.335-.86 4.893-2.087 8.31-3.428-5.156-8.834-10.193-3.897-21.232.372.41.668.756.98 1.11-.207-.444-.41-.874-.648-1.41 10.15-.34 14.353 6.775 17.665 12.002-5.665-.422-8.99-1.1-11.89-3.205-.368-.403-.688-.742-.985-1.056.203.485.413.997.684 1.617.018.083.012.17.026.254 8.32 3.658 10.422 8.212 11.23 15.912-6.956-2.37-10.235-5.464-11.08-12.3m217.567 8.307c-1.217-3.41-1.9-5.967-2.082-8.296-.843 6.83-4.122 9.922-11.08 12.29.812-7.7 2.91-12.255 11.233-15.913.016-.084.008-.166.024-.253.27-.62.488-1.132.69-1.616-.3.312-.62.65-.99 1.056-2.9 2.106-6.225 2.783-11.89 3.205 3.308-5.227 7.514-12.342 17.667-12-.236.534-.443.964-.65 1.41.314-.356.61-.702.982-1.112 4.937 11.038-.472 16.075-3.903 21.23m7.948-11.776c-2.463-5.116-3.54-8.338-3.167-11.897.256-.806.442-1.458.627-2.056-.34.45-.713.926-1.166 1.54-2.666 2.398-5.904 3.422-11.492 4.432 2.747-5.546 6.182-13.06 16.315-13.783-.238.728-.456 1.36-.655 1.932.35-.51.74-1.06 1.195-1.69 6.07 10.467 1.217 16.04-1.656 21.522m6.494-12.518c-2.992-4.837-4.398-7.92-4.398-11.507.167-.83.29-1.492.41-2.11-.294.48-.615.997-1 1.655-2.4 2.666-5.514 4.02-10.966 5.614 2.152-5.805 4.784-13.638 14.785-15.417-.163.75-.31 1.4-.45 1.992.298-.545.627-1.135 1.016-1.806 7.125 9.776 2.885 15.826.604 21.58m5.144-13.133c-3.48-4.494-5.2-7.415-5.575-10.98.08-.84.132-1.514.183-2.136-.24.503-.507 1.05-.822 1.747-2.103 2.902-5.062 4.57-10.318 6.723 1.536-5.992 3.333-14.06 13.093-16.876-.083.768-.162 1.427-.24 2.038.243-.573.505-1.197.82-1.906 8.116 8.97 4.527 15.436 2.858 21.39m3.742-13.778c-3.927-4.107-5.943-6.835-6.69-10.34-.006-.768-.023-1.39-.036-1.973-.19.535-.396 1.11-.64 1.836-1.795 3.107-4.555 5.076-9.558 7.77.79-5.373 1.62-12.34 8.157-16.55-.56-.78-.96-1.69-.96-2.722 0-1.26.512-2.392 1.305-3.244-5.907-4.86-6.014-11.804-6.237-17.18 4.697 3.198 7.238 5.448 8.698 8.722.165.745.313 1.338.442 1.883.074-.623.166-1.292.267-2.13 1.103-3.41 3.398-5.91 7.73-9.588.352 5.476 2.075 11.656-4.378 17.934 1.037.877 1.73 2.137 1.73 3.602 0 1.64-.878 3.015-2.138 3.876 5.56 6.84 3.22 12.74 2.308 18.104" fill="#1C2957"/><path d="M70.722 203.774l9.795-6.427c3.366 4.896 22.648 32.445 48.358 37.342.61 12.853-2.756 13.77-2.756 13.77-6.427-2.145-48.97-23.873-54.785-40.4-2.143-2.753-.613-4.286-.613-4.286M176.438 246.803l-3.872-11.054c5.568-2.09 36.958-14.146 47.91-37.918 12.62 2.51 12.698 5.994 12.698 5.994-2.992 12.188-34.986 41.764-52.423 43.417-3.192 1.416-4.312-.44-4.312-.44M56.125 56.195L60.22 52l.33.324c-1.6 1.637-1.08 2.286.427 3.76l5.335 5.208c1.73 1.688 4.224 5.058.06 9.324-2.983 3.054-5.854 3.09-8.576.43l-5.98-5.835c-1.49-1.454-1.97-1.92-3.657-.193l-.333-.323 6.232-6.382.332.323c-1.688 1.73-1.212 2.195.28 3.652l6.604 6.447c1.362 1.33 3.08 2.145 5.128.046 2.26-2.317.956-4.957-.697-6.573l-5.485-5.35c-1.506-1.472-2.167-1.974-3.765-.337l-.332-.325zM81.012 49.194l.042-.03-4.682-6.325c-.84-1.136-1.81-1.28-3.194-.257l-.277-.37 4.65-3.443.276.373c-1.384 1.023-1.53 1.994-.687 3.132l8.82 11.923-.33.245-17.61-4.525-.043.03 6.638 8.97c.84 1.137 1.81 1.282 3.196.255l.276.374-4.65 3.442-.273-.375c1.384-1.024 1.527-1.995.685-3.13l-7.385-9.982c-1.287-.36-1.922-.527-2.915.208l-.278-.373 4.838-3.576 12.904 3.434zM93.31 45.807c1.02 1.815 1.345 2.4 3.453 1.217l.226.403-7.783 4.363-.226-.405c2.11-1.182 1.782-1.765.764-3.58l-5.18-9.24c-1.017-1.815-1.344-2.4-3.45-1.218l-.23-.403 7.783-4.363.226.403c-2.11 1.182-1.78 1.768-.763 3.583l5.18 9.24zM108.82 24.376c-1.233.722-1.393 1.84-1.508 4.576l-.588 14.543-.38.153L94.272 31.75c-.415-.416-1.06-.987-2.257-.586l-.173-.43 7.58-3.06.173.43c-.953.382-1.93.778-1.604 1.59.155.38.77.937 1.055 1.237l7.02 6.952.316-8.97c.042-.932-.01-1.606-.2-2.082-.424-1.05-1.7-.7-2.556-.353l-.174-.43 5.196-2.1.175.43zM119.788 29.276c2.878-.685 2.732-2.397 2.59-4.766l.45-.11 2.084 8.757-.45.104c-.943-2.18-1.586-3.768-4.46-3.084l1.06 4.45c.497 2.102.604 2.553 2.33 2.14 2.35-.56 5.302-1.26 5.53-5.86l.45-.107.5 5.43-14.305 3.403-.11-.45c2.352-.56 2.198-1.208 1.715-3.233l-2.45-10.305c-.483-2.027-.637-2.676-2.99-2.12l-.106-.45 13.857-3.296 1.165 4.903-.45.106c-1.605-3.53-3.366-3.375-6.64-2.597l-1.38.328 1.61 6.756zM138.427 31.954c.172 2.076.227 2.742 2.635 2.544l.035.46-8.76.722-.038-.46c2.408-.2 2.35-.864 2.18-2.943l-.866-10.554c-.172-2.077-.226-2.743-2.635-2.545l-.04-.462 9.382-.77c3.843-.315 6.474.963 6.743 4.244.18 2.203-1.43 3.91-3.5 4.49l4.886 5.74c.74.893 1.144 1.375 2.145 1.296l.035.46-5.33.44-6.093-7.293-1.15.095.37 4.536zm-.443-5.406l1.227-.102c3.03-.248 3.828-1.81 3.655-3.885-.218-2.69-1.49-3.72-3.848-3.525l-1.64.134.607 7.378zM164.405 23.4l-.464-.03c-.134-2.298-2.032-4.817-4.47-4.972-1.415-.093-2.893.51-2.993 2.076-.223 3.463 8.952 4.203 8.585 9.875-.202 3.205-3.13 5.054-6.158 4.86-1.335-.085-2.16-.395-3.31-.986-.25-.118-.652-.272-.935-.29-.593-.04-1.135.416-1.347.918l-.462-.03.413-6.414.46.028c.207 2.77 2.188 5.707 5.136 5.893 1.462.095 3.135-.675 3.237-2.29.252-3.925-8.817-4.353-8.445-10.1.182-2.872 2.774-4.718 5.52-4.54 1.228.078 2.01.36 3.057.967.347.202.718.432 1.126.458.692.046.782-.57.947-1.1l.458.032-.355 5.644zM174.36 33.585c-.364 2.052-.48 2.71 1.9 3.133l-.084.456-8.782-1.564.08-.456c2.38.422 2.494-.235 2.86-2.285l1.858-10.43c.363-2.048.482-2.707-1.9-3.13l.082-.457 8.787 1.562-.08.456c-2.382-.422-2.497.236-2.862 2.285l-1.857 10.43zM192.354 25.012l-3.763 12.264c-.607 1.99-.81 2.63 1.503 3.34l-.135.44-8.53-2.617.138-.443c2.31.71 2.506.072 3.116-1.92l3.768-12.265-1.33-.407c-1.872-.573-3.083-.3-4.63 2.37l-.44-.135 1.35-4.4 14.575 4.474-1.35 4.4-.445-.135c.22-3.08-.63-3.99-2.5-4.562l-1.326-.406zM204.7 43.836c-.988 2.092-1.176 2.487 1.313 3.664l-.197.417-8.667-4.098.197-.422c2.484 1.178 2.67.78 3.66-1.31l1.333-2.81-.566-8.798c-.143-2.343-.244-2.906-1.383-3.443l.2-.42 7.37 3.484-.2.42c-.745-.353-1.512-.715-1.854.007-.174.37-.086 1.44-.05 1.853l.403 6.902 5.508-3.71c.42-.283 1.28-.843 1.5-1.307.373-.792-.582-1.414-1.256-1.735l.2-.417 4.67 2.21-.2.418c-1.324-.624-2.565.438-3.982 1.386l-6.36 4.245-1.64 3.466zM222.743 47.928c3.278-4.124 8.55-4.56 12.62-1.33 4.065 3.23 4.824 8.467 1.546 12.594-3.278 4.126-8.555 4.562-12.618 1.33-4.068-3.23-4.826-8.47-1.55-12.594m10.624 8.446c1.873-2.355 4.488-6.55 1.385-9.013-3.098-2.463-6.594 1.03-8.464 3.384-1.873 2.355-4.484 6.55-1.39 9.015 3.102 2.464 6.6-1.03 8.47-3.386M239.787 69.938c-1.527 1.412-2.022 1.865-.384 3.64l-.34.313-6.05-6.557.345-.312c1.637 1.776 2.13 1.323 3.66-.088l7.792-7.18c1.527-1.412 2.017-1.863.38-3.64l.34-.315 9.74 10.567-3.705 3.416-.31-.342c2.29-3.126 1.294-4.585-.988-7.06l-1.047-1.135-5.103 4.705c2.298 2.493 3.694 1.806 5.49.57l.317.34-6.336 5.836-.315-.34c1.663-1.952 2.463-3.284.164-5.78l-3.65 3.364zM68.743 258.74c-1.267 1.654-1.676 2.184.243 3.654l-.28.367-6.98-5.346.283-.367c1.917 1.465 2.324.938 3.59-.713l6.445-8.41c1.265-1.65 1.672-2.183-.244-3.652l.282-.367 6.366 4.882c2.898 2.22 4.122 5.1 2.26 7.528-1.487 1.94-4.304 2.662-8.468-.53l-.776-.59-2.72 3.544zm3.316-4.325l.426.328c1.937 1.486 3.53.762 4.904-1.03 1.363-1.778 1.38-3.448-.456-4.854l-.387-.298-4.488 5.853zM83.715 268.864c-1.075 1.787-1.42 2.356.65 3.605l-.24.395-7.64-4.6.237-.397c2.07 1.248 2.414.674 3.487-1.113l5.462-9.075c1.073-1.782 1.42-2.355-.653-3.604l.24-.393 7.642 4.597-.24.4c-2.068-1.25-2.414-.677-3.487 1.11l-5.46 9.074zM103.14 264.306l-5.263 11.7c-.856 1.9-1.13 2.505 1.075 3.5l-.192.42-8.135-3.657.192-.425c2.203.99 2.478.383 3.332-1.517l5.262-11.7-1.266-.573c-1.782-.797-3.02-.678-4.885 1.782l-.423-.19 1.888-4.196 13.904 6.256-1.89 4.196-.424-.19c.603-3.03-.127-4.035-1.912-4.834l-1.264-.572zM119.93 270.09l-3.483 12.345c-.567 2.007-.747 2.65 1.578 3.304l-.125.45-8.586-2.426.125-.445c2.325.657 2.507.014 3.074-1.993l3.48-12.35-1.336-.373c-1.88-.527-3.086-.232-4.57 2.477l-.444-.124 1.246-4.43 14.674 4.137-1.25 4.43-.446-.124c.148-3.088-.722-3.973-2.605-4.502l-1.334-.377zM138.424 277.853l-.458-.066c.036-2.306-1.67-4.958-4.09-5.292-1.4-.198-2.92.29-3.138 1.843-.478 3.44 8.615 4.863 7.828 10.492-.444 3.18-3.5 4.806-6.503 4.385-1.325-.182-2.128-.557-3.23-1.225-.24-.14-.63-.324-.908-.363-.588-.08-1.163.328-1.414.813l-.455-.06.888-6.37.457.067c.003 2.777 1.755 5.85 4.682 6.26 1.453.2 3.177-.442 3.4-2.047.545-3.894-8.465-4.995-7.67-10.7.398-2.85 3.12-4.495 5.845-4.116 1.222.172 1.98.51 2.974 1.197.332.224.684.483 1.094.54.686.098.823-.51 1.023-1.025l.46.064-.783 5.603zM144.72 276.28c.01-2.08.015-2.748-2.404-2.762v-.46l8.95.04c6.014.025 6 3.725 6 4.24-.015 2.367-2.048 3.31-3.926 3.737v.05c2.413.477 4.8 1.514 4.785 4.394-.005 1.745-1.38 4.622-7.498 4.592l-8.38-.036v-.46c2.414.01 2.423-.658 2.43-2.743l.042-10.592zm3.913 11.226c-.002 1.185.25 1.623 1.43 1.627 2.11.01 3.53-1.475 3.54-3.533.004-1.026-.24-3.854-4.173-3.873l-.773-.004-.024 5.783zm.028-6.76c3.14.016 4.376-1.215 4.388-3.347 0-.775-.294-3.32-3.638-3.334l-.72-.005-.03 6.687zM171.376 271.393l5.797-.845.07.46c-2.267.33-2.25 1.16-1.944 3.244l1.07 7.38c.348 2.388.282 6.58-5.616 7.44-4.226.616-6.53-1.102-7.075-4.87l-1.206-8.266c-.3-2.062-.396-2.722-2.787-2.373l-.068-.46 8.828-1.284.066.458c-2.388.348-2.293 1.01-1.994 3.07l1.326 9.133c.273 1.882 1.146 3.578 4.048 3.153 3.205-.467 3.77-3.355 3.44-5.642l-1.104-7.58c-.307-2.086-.522-2.886-2.787-2.558l-.067-.46zM188.666 281.526c.62 1.986.822 2.625 3.128 1.904l.14.44-8.394 2.625-.137-.44c2.304-.724 2.103-1.36 1.488-3.35l-3.164-10.107c-.625-1.988-.826-2.626-3.128-1.904l-.14-.442 8.982-2.81c3.68-1.15 6.53-.48 7.514 2.662.66 2.11-.542 4.13-2.43 5.15l6.025 4.528c.915.706 1.415 1.09 2.372.793l.135.44-5.1 1.597-7.546-5.774-1.104.344 1.36 4.344zm-1.62-5.18l1.178-.364c2.896-.91 3.334-2.61 2.713-4.598-.807-2.574-2.275-3.303-4.533-2.597l-1.568.492 2.21 7.066zM214.39 261.79l-.413.21c-2.115-2.074-5.152-3.013-7.882-1.632-3.902 1.97-2.87 6.4-1.27 9.57 1.67 3.3 4.303 6.636 8.388 4.576.85-.43 1.54-.95 2.25-1.71l-1.276-2.528c-.94-1.857-1.243-2.455-3.402-1.366l-.21-.41 7.506-3.793.21.412c-1.812.915-1.513 1.514-.57 3.37l1.308 2.596c-1.335 2.144-4.41 3.812-5.834 4.527-4.91 2.484-10.075.978-12.33-3.474-2.395-4.75-.372-10.035 4.285-12.388 1.678-.848 2.8-1.072 3.65-1.156.852-.086 1.428-.026 1.907-.273.62-.31.603-1.084.566-1.67l.418-.21 2.7 5.348zM228.107 262.464c1.238 1.674 1.637 2.21 3.578.774l.275.373-7.173 5.307-.272-.372c1.944-1.437 1.543-1.974.305-3.646l-6.3-8.517c-1.242-1.674-1.635-2.21-3.583-.775l-.27-.373 7.165-5.304.28.372c-1.944 1.437-1.545 1.974-.31 3.65l2.692 3.636 4.8-3.55-2.695-3.636c-1.237-1.672-1.64-2.21-3.58-.772l-.276-.37 7.173-5.31.273.37c-1.945 1.44-1.54 1.98-.304 3.65l6.3 8.513c1.24 1.675 1.636 2.216 3.58.775l.274.37-7.17 5.31-.28-.374c1.946-1.436 1.547-1.973.31-3.648l-2.953-3.99-4.796 3.55 2.957 3.988z" fill="#fff"/><path d="M182.96 236.267c-.004-.304-.028-1.063-.14-1.316-.212-.486-.827-.395-1.237-.26l-.104-.245 2.748-1.195.103.24c-.78.44-.786 1.24-.772 2.05l.188 8.765-.24.102-6.55-6.107c-.71-.672-1.04-1.07-2.064-.703l-.108-.244 3.65-1.587.108.246c-.395.232-.966.496-.725 1.064.152.353.607.728.875.984l4.404 4.12-.135-5.913zM192.614 237.62c.583 1.083.762 1.41 1.976.752l.123.23-3.644 1.975-.126-.234c1.217-.656 1.04-.977.453-2.064l-2.847-5.274c-.59-1.082-.765-1.406-1.982-.75l-.128-.234 3.65-1.974.124.233c-1.214.66-1.04.982-.453 2.07l2.854 5.27zM203.427 233.213l-5.243-2-.84.54 1.46 2.24c.67 1.038.868 1.347 2.028.594l.148.222-3.476 2.256-.143-.223c1.16-.75.96-1.058.283-2.095l-3.263-5.023c-.674-1.033-.875-1.342-2.033-.588l-.143-.223 3.533-2.3c2.402-1.56 3.747-.436 4.21.277.766 1.186.254 2.464-.675 3.382l3.032 1.183c1.148.45 1.982.763 3.16.12l.144.222-2.18 1.416zm-6.335-1.85l.27-.18c1.166-.76 2.126-1.98 1.236-3.345-.637-.987-1.787-1.292-2.783-.642-.344.22-.635.502-.935.767l2.212 3.4zM209.98 225.976c.776.957 1.01 1.245 2.083.377l.166.207-3.226 2.6-.163-.204c1.077-.867.843-1.154.07-2.115l-4.537-5.624-1.135.91c-.947.77-.775 1.574-.258 2.326l-.207.163-1.35-1.837 6.176-4.978 1.508 1.71-.207.163c-.626-.664-1.37-1.004-2.32-.237l-1.133.91 4.534 5.63zM214.972 219.487c1.398 1.325 3.172 2.03 5.314-.233 2.1-2.22 1.132-4.085-.15-5.294l-3.15-2.976c-.898-.846-1.163-1.103-.213-2.105l-.192-.18-2.33 2.46.19.187c.952-1.005 1.214-.752 2.114.096l2.626 2.48c.577.547 1.407 1.332 1.598 2.16.214.97-.242 1.992-.9 2.683-.667.707-1.653 1.11-2.587.69-.496-.226-1.318-.924-1.734-1.312l-2.82-2.667c-.896-.844-1.16-1.098-.213-2.1l-.192-.183-2.842 3.01.19.184c.95-1.007 1.217-.75 2.112.096l3.182 3.003zM224.106 203.405l-.152.217c-1.33-.782-2.925-.662-3.837.672-.47.693-.43 1.75.3 2.25 1.686 1.15 4.978-3.043 7.353-1.42 1.263.86 1.635 2.575.59 4.118-.38.558-.768.885-1.103 1.114-.332.255-.606.423-.805.714-.19.28-.027.48.198.67l-.148.22-2.756-1.882.15-.217c2.066 1.145 3.416-.102 3.902-.82.557-.814.672-1.89-.214-2.497-1.843-1.256-4.978 2.863-7.38 1.223-1.24-.842-1.387-2.582-.526-3.844.3-.435.658-.726.976-.93.315-.234.598-.38.704-.538.2-.288.03-.512-.18-.727l.152-.22 2.776 1.898zM82.382 206.924c.292-.076 1.022-.283 1.243-.455.42-.325.182-.9-.043-1.265l.21-.16 1.826 2.38-.212.156c-.615-.652-1.394-.464-2.177-.252l-8.456 2.303-.16-.208 4.34-7.83c.48-.85.786-1.27.18-2.18l.21-.16 2.426 3.16-.21.16c-.325-.323-.72-.818-1.21-.44-.302.228-.562.765-.74 1.09l-2.934 5.27 5.706-1.568zM87.71 210.463l1.68 1.826c.936 1.014 1.12 1.387.216 2.596l.2.215 1.476-1.536-5.057-5.49-.196.18c.936 1.014.667 1.262-.24 2.098l-4.41 4.062c-.908.837-1.176 1.084-2.112.07l-.194.18 5.105 5.543 2.352-1.047-.19-.207c-1.478.324-2.24.39-3.117-.562l-1.353-1.47c-.417-.45-.442-.675 0-1.078l2.615-2.412 1.326 1.44c.804.874.965 1.265.095 2.226l.18.193 2.496-2.3-.178-.19c-1.025.818-1.42.562-2.207-.29l-1.322-1.44 2.83-2.607zM91.122 226.756l.613-5.58-.74-.673-1.8 1.98c-.83.91-1.078 1.183-.058 2.113l-.176.193L85.898 222l.178-.197c1.02.928 1.268.66 2.1-.254l4.033-4.434c.833-.91 1.08-1.184.056-2.11l.178-.193 3.12 2.835c2.117 1.93 1.372 3.51.797 4.142-.952 1.043-2.32.868-3.443.207l-.38 3.23c-.138 1.223-.233 2.108.686 3.088l-.178.193-1.923-1.752zm.19-6.6l.238.217c1.033.94 2.453 1.562 3.55.352.792-.868.8-2.055-.08-2.855-.303-.277-.647-.487-.98-.715l-2.73 3zM97.59 229.602c-.753.976-.98 1.267.113 2.113l-.162.21-3.273-2.538.162-.21c1.09.85 1.315.557 2.07-.42l3.672-4.736c.755-.975.98-1.264-.11-2.112l.16-.207 3.277 2.536-.165.207c-1.09-.842-1.316-.55-2.072.424l-3.672 4.735zM104.214 234.244c-.672 1.035-.87 1.344.287 2.093l-.144.222-3.478-2.253.147-.22c1.16.747 1.358.44 2.03-.594l3.932-6.064-1.22-.794c-1.024-.664-1.732-.25-2.287.477l-.222-.145 1.324-1.853 6.655 4.318-1.152 1.966-.22-.147c.432-.8.524-1.62-.5-2.282l-1.22-.793-3.93 6.067zM110.618 236.418l-1.136.96c-.216.17-.603.487-.725.735-.244.487.255.804.723 1.08l-.12.24-2.734-1.36.117-.238c.718.273 1.163.07 2.015-.655l6.78-5.782.238.12-.573 8.574c-.063.95-.18 1.81.774 2.335l-.118.237-3.435-1.707.118-.237c.58.255.96.315 1.19-.148.144-.29.157-.84.182-1.154l.07-1.326-3.367-1.674zm3.69-3.135l-3.26 2.756 3 1.49.26-4.247zM126.06 239.156l-.254-.082c.382-1.5-.176-2.994-1.714-3.498-.795-.26-1.8.074-2.076.912-.634 1.94 4.308 3.933 3.414 6.668-.474 1.453-2.017 2.293-3.79 1.71-.642-.21-1.06-.486-1.378-.746-.336-.248-.576-.465-.91-.574-.323-.108-.47.11-.59.38l-.25-.08 1.038-3.173.252.082c-.523 2.304 1.05 3.253 1.876 3.52.936.31 2.004.113 2.34-.905.693-2.12-4.14-3.98-3.235-6.747.466-1.422 2.092-2.05 3.547-1.574.5.164.88.426 1.168.677.31.238.527.465.708.525.336.11.503-.115.647-.377l.253.083-1.046 3.198z" fill="#1C2957"/></svg>