<svg xmlns="http://www.w3.org/2000/svg" width="365.333" height="231.999" viewBox="0 0 3806 2417" shape-rendering="geometricPrecision" text-rendering="geometricPrecision" image-rendering="optimizeQuality" fill-rule="evenodd" clip-rule="evenodd"><defs><style><![CDATA[
    .fil0 {fill:#FEFEFE;fill-rule:nonzero}
   ]]></style></defs><g id="Layer_x0020_1"><path class="fil0" d="M2966 623V251h-173v26h49v346h-63v25h249v-25zM513 10h-22c-1 19-11 27-30 27-38 0-92-45-157-47h-6C113-8 1 175 1 337c0 163 108 325 288 325 110 0 151-52 180-52 19 0 23 17 23 37h25V423h-25l-5 31c-13 74-70 183-188 183-104 0-144-90-144-312 0-233 55-311 147-311 104 0 176 117 190 210h22V9zM997 571c0 23-15 50-26 50-16 0-20-17-20-45V369c0-103-96-128-189-128-90 0-156 44-156 95 0 32 18 59 59 59 34 0 55-22 55-54 0-46-48-46-48-47 0-20 53-27 84-27 67 0 76 25 76 79v76l-88 7c-82 6-171 28-171 122 0 78 70 110 140 110 35 0 97-13 121-57 16 38 50 57 90 57 58 0 96-35 96-88h-23zm-164-30c-2 48-29 87-71 87-61 0-64-52-64-91 0-48 5-79 64-86l71-7v97zM725 823l1-25H520l-149 427-145-427H0v26h61v514c0 39-10 69-61 69v25h156v-25h-3c-49 0-68-4-68-77V820h2l215 612h24l210-601h2v576h-60v25h247v-25h-59V824h59zM869 1212h248c-1-97-91-191-185-189-106 0-198 92-198 213 0 117 86 204 201 204 111 0 166-68 185-158h-25c-20 84-64 131-134 131-84 0-93-66-93-127v-76zm0-24v-61c0-60 26-79 57-79 43 0 57 30 57 79v61H870zM1903 1977h248c-1-97-91-191-185-189-106 0-198 92-198 213 0 117 86 204 201 204 111 0 166-68 185-158h-25c-20 84-64 131-134 131-84 0-93-66-93-127v-76zm0-24v-60c0-60 26-79 57-79 43 0 57 30 57 79v60h-113z"/><path class="fil0" d="M1119 798v23h62v584h-62v25h249v-25h-62V798zM1385 798v23h62v584h-62v25h248v-25h-62V798zM2059 1232c0-123-95-209-214-209s-214 86-214 209 95 209 214 209 214-86 214-209zm-140 89c0 68-28 95-74 95s-74-28-74-95v-177c0-68 28-95 74-95s74 28 74 95v177zM0 1585h63v400c0 140 96 224 243 224 166 0 238-87 238-220v-342c0-52 14-63 47-63h18v-24H451v24h11c46 0 52 14 52 66v347c0 122-76 178-153 178-131 0-158-88-165-203v-388h59v-24H0v24zM1560 2205h24l133-315c27-59 41-66 62-67h8v-25h-140v25h17c26 0 38-2 38 22 0 14-5 29-15 55l-61 144-98-220h50v-25h-226v25h42l166 382zM2563 2205h21c4-14 14-22 32-22 23 0 51 22 102 22 86 0 144-74 144-148 0-110-76-118-172-131-50-7-79-14-79-54 0-42 37-60 85-60 68 0 94 45 116 103h21v-128h-20c0 11-9 20-26 20-29 0-52-20-94-20-90 0-134 77-134 134 0 116 88 126 157 134 65 8 88 12 88 54 0 48-40 69-88 69-68 0-115-59-132-125h-21v151zM1319 2171v-373h-187v26h63v347h-63v24h249v-24zM1195 1674c0 34 28 62 62 62s62-28 62-62-28-62-62-62-62 28-62 62zM2938 1674c0 34 28 62 62 62s62-28 62-62-28-62-62-62-62 28-62 62zM2080 430h248c-1-97-91-191-185-189-106 0-198 92-198 213 0 117 86 204 201 204 111 0 166-68 185-158h-25c-20 84-64 131-134 131-84 0-93-66-93-127v-76zm0-24v-60c0-60 26-79 57-79 43 0 57 30 57 79v60h-113zM3167 430h248c-1-97-91-191-185-189-106 0-198 92-198 213 0 117 86 204 201 204 111 0 166-68 185-158h-25c-20 84-64 131-134 131-84 0-93-66-93-127v-76zm0-24v-60c0-60 26-79 57-79 32 0 57 19 57 79v60h-113zM1053 2171v-243c0-97-41-143-127-143-60 0-121 35-146 87v-73H594v24h62v347h-62v24h239v-24h-53v-238c8-33 50-111 99-111 33 0 49 11 49 72v276h-51v24h238v-24h-62zM2518 1406v-243c0-97-41-143-127-143-60 0-122 35-146 87v-73h-186v24h62v347h-62v24h239v-24h-53v-238c8-33 50-111 99-111 33 0 49 11 49 72v276h-51v24h238v-24h-62zM1882 624V381c0-97-41-143-127-143-60 0-122 35-146 87v-73h-186v24h62v347h-62v24h239v-24h-53V385c8-33 50-111 99-111 33 0 49 11 49 72v276h-51v24h238v-24h-62zM2842 128c0 34 28 62 62 62s62-28 62-62-28-62-62-62-62 28-62 62zM3062 1798h-186v26h62v347h-62v24h248v-24h-62zM3666 1798v26c38 0 55 4 55 21 0 14-5 29-15 55l-61 144-98-220h51v-26h-310v-193h-16c0 95-65 194-156 194v26h48v279c0 86 74 103 99 103 55 0 92-22 120-69l-19-11c-11 16-25 38-48 38-18 0-28-13-28-42v-297h125l164 379-57 134c-1 3-4 4-7 4s-6-2-7-5c-7-26-31-45-59-45-34 0-62 28-62 62 0 24 14 45 34 55 1 0 1 1 2 1 1 1 2 1 4 2 7 3 15 5 23 5h7c48 0 73-36 90-74 4-9 8-18 11-26 8-19 22-52 38-90l16-37 127-299c27-59 37-66 70-66v-26h-140zM1332 237c-58 0-102 40-119 85h-2v-69h-185v25h62v346h-62v25h269v-25h-83V430c0-58 15-117 53-150 2-2 5-2 8-1s4 5 4 8c-2 7-4 15-5 26-1 33 26 58 61 58 43 0 68-32 68-66 0-43-29-69-71-69zM2583 373c0 105-24 108-57 108-36 0-55-7-55-111 0-73 8-104 55-104 42 0 56 3 57 106zm-15 308c90 0 114 4 114 59 0 66-81 126-171 126-81 0-120-50-122-93 0-40 20-66 44-92h135zm120-414c2 0 4-1 5 0s1 3 0 5c-5 9-8 21-3 33 4 12 15 22 27 25 26 6 48-13 48-38 0-16-10-28-21-35s-25-10-40-10c-24 0-49 13-66 28-4-3-8-6-13-8-25-14-57-24-100-24-76 0-157 50-157 131 0 49 27 88 75 110v2c-35 5-90 29-90 104 0 45 21 79 59 90v2c-36 10-77 46-77 89 0 67 78 118 178 118 125 0 207-85 207-194 0-87-43-127-131-125h-149c-23 0-38-1-38-25 0-22 35-47 69-47 6 0 16 5 18 5 11 4 23 5 37 5 77 0 160-44 160-130 0-26-12-63-33-85-1-1-1-3 0-5 9-7 19-13 23-15s7-4 11-5zM2467 1782c-58 0-102 40-119 85h-2v-69h-185v25h62v346h-62v25h269v-25h-83v-194c0-58 15-117 53-150 2-2 5-2 8-1s4 5 4 8c-2 7-4 15-5 25-1 33 26 58 61 58 43 0 68-31 68-66 0-43-29-69-71-69z"/></g></svg>
