<svg width="101" height="24" viewBox="0 0 101 24" fill="none" xmlns="http://www.w3.org/2000/svg"><path d="M9.58797 11.988C9.58797 10.1419 8.31585 8.91908 6.71393 8.91908C5.11201 8.91908 3.79278 10.1419 3.79278 11.988C3.79278 13.8342 5.0649 15.0569 6.69037 15.0569C8.31585 15.0569 9.58797 13.8581 9.58797 11.988ZM13.263 0.983017V17.3826C13.263 17.958 12.9803 18.2218 12.5562 18.2218C11.9202 18.2218 11.025 17.6703 10.3889 16.7113C9.61152 17.6224 8.0096 18.4615 6.17211 18.4615C2.47355 18.4615 0 15.7043 0 11.988C0 8.27173 2.54423 5.51449 6.17211 5.51449C7.38786 5.51674 8.57599 5.88368 9.58797 6.56943V4.84316C9.58797 1.84615 11.2606 0.143856 12.6033 0.143856C13.0274 0.143856 13.263 0.431568 13.263 0.983017ZM28.175 7.26474V17.3826C28.175 17.958 27.8923 18.2218 27.4682 18.2218C26.8322 18.2218 25.937 17.6703 25.3009 16.6633C24.8126 17.234 24.2073 17.6886 23.5275 17.9952C22.8477 18.3018 22.1101 18.4528 21.3668 18.4376C19.9535 18.4735 18.58 17.959 17.5269 16.999C16.4197 15.9201 15.8307 14.2657 15.8307 11.8681V7.26474C15.8307 6.4016 16.1605 5.99401 17.0793 5.99401H18.3279C19.2466 5.99401 19.5764 6.35365 19.5764 7.26474V11.5085C19.5764 12.9471 19.8355 13.7143 20.2831 14.2178C20.5017 14.439 20.7636 14.611 21.0518 14.7225C21.3399 14.8341 21.6479 14.8827 21.9557 14.8651C22.2867 14.8707 22.615 14.8053 22.9195 14.6731C23.2239 14.5409 23.4975 14.3449 23.7226 14.0979C24.1702 13.5944 24.4293 12.8032 24.4293 11.5804V7.26474C24.4293 6.35365 24.8298 5.99401 25.6778 5.99401H26.9264C27.7745 5.99401 28.175 6.35365 28.175 7.26474ZM39.5297 11.988C39.5297 10.2138 38.4225 8.91908 36.7028 8.91908C34.9831 8.91908 33.8759 10.2138 33.8759 11.988C33.8759 13.7622 34.9831 15.0569 36.7028 15.0569C38.4225 15.0569 39.5297 13.7862 39.5297 11.988ZM30.0831 11.988C30.0831 8.1998 32.91 5.51449 36.6793 5.51449C40.4485 5.51449 43.2754 8.17582 43.2754 11.988C43.2754 15.8002 40.4485 18.4615 36.6793 18.4615C32.91 18.4615 30.0831 15.7522 30.0831 11.988ZM45.4192 16.7592V4.84316C45.4192 1.84615 47.0446 0.143856 48.4345 0.143856C48.8586 0.143856 49.1413 0.431568 49.1413 0.983017V16.7592C49.1413 17.6703 48.7879 17.982 47.8927 17.982H46.6442C45.7961 17.982 45.4192 17.6464 45.4192 16.7592ZM51.9682 16.7592V7.26474C51.9682 6.4016 52.298 5.99401 53.2167 5.99401H54.4653C55.384 5.99401 55.7138 6.35365 55.7138 7.26474V16.7592C55.7138 17.6224 55.384 17.982 54.4653 17.982H53.2167C52.298 17.982 51.9682 17.6224 51.9682 16.7592ZM51.7326 2.06194C51.7418 1.51387 51.9615 0.991235 52.3445 0.605879C52.7275 0.220523 53.2435 0.0030519 53.7821 0L53.8528 0C54.3826 0.0352013 54.8775 0.281402 55.2302 0.685282C55.583 1.08916 55.7652 1.61821 55.7374 2.15784C55.6987 2.69547 55.4556 3.19657 55.0597 3.55471C54.6638 3.91285 54.1464 4.09983 53.6172 4.07592C53.1057 4.06086 52.6207 3.8408 52.2677 3.46363C51.9148 3.08646 51.7225 2.58269 51.7326 2.06194ZM71.097 12.2517V16.7592C71.097 17.6224 70.7672 17.982 69.8484 17.982H68.5999C67.6811 17.982 67.3513 17.6224 67.3513 16.7592V12.3477C67.3513 11.2208 67.1629 10.4296 66.7859 9.92607C66.5546 9.65025 66.2648 9.43143 65.9384 9.28607C65.612 9.14072 65.2574 9.07263 64.9013 9.08691C64.5345 9.06901 64.1684 9.13511 63.83 9.28035C63.4916 9.42558 63.1895 9.64624 62.946 9.92607C62.522 10.4296 62.2393 11.2208 62.2393 12.2997V16.7113C62.2393 17.6224 61.8388 17.9341 60.9908 17.9341H59.7422C58.8941 17.9341 58.4937 17.5984 58.4937 16.7113V6.61738C58.4937 6.04196 58.7763 5.77822 59.2004 5.77822C59.8364 5.77822 60.7316 6.32967 61.3912 7.36064C61.8992 6.7939 62.5177 6.34125 63.2073 6.03162C63.8969 5.72199 64.6423 5.56219 65.396 5.56244C67.21 5.56244 68.6706 6.20979 69.6129 7.28871C70.6258 8.36763 71.097 9.85415 71.097 12.2517ZM77.0571 10.8372C77.0838 11.4357 77.3362 12.0007 77.7618 12.4147C78.1874 12.8286 78.7535 13.0596 79.3422 13.0596C79.9309 13.0596 80.4969 12.8286 80.9225 12.4147C81.3481 12.0007 81.6006 11.4357 81.6273 10.8372C81.6273 9.54246 80.7085 8.63137 79.3657 8.63137C78.0229 8.63137 77.0571 9.49451 77.0571 10.8372ZM82.1926 18.4615C82.1926 17.023 81.0854 16.016 79.3657 16.016C77.646 16.016 76.5388 16.999 76.5388 18.4615C76.5388 19.8282 77.7402 20.9071 79.3657 20.9071C80.9912 20.9071 82.1926 19.8282 82.1926 18.4615ZM84.8547 8.99101C85.1016 9.49689 85.223 10.0567 85.208 10.6214C85.208 11.988 84.5013 13.2587 83.3705 14.2418C84.9253 15.009 85.8441 16.8312 85.8441 18.5814C85.8441 21.8422 83.2527 24 79.3186 24C75.3845 24 72.7931 21.8422 72.7931 18.5574C72.7739 17.6726 72.9946 16.7995 73.431 16.034C73.8673 15.2684 74.5025 14.64 75.2667 14.2178C74.0888 13.2348 73.4292 11.988 73.4292 10.5974C73.4292 7.74426 75.6201 5.65834 79.1066 5.65834C81.1561 5.65834 81.7686 6.01798 82.9465 6.01798C83.7456 6.05377 84.5359 5.83594 85.208 5.39461C85.4404 5.23978 85.7083 5.14891 85.9854 5.13087C86.4566 5.13087 86.6922 5.61039 86.6922 6.18581C86.7472 6.79674 86.5948 7.4084 86.2604 7.91885C85.9261 8.42931 85.4299 8.80771 84.8547 8.99101ZM96.822 11.988C96.822 10.2138 95.7147 8.91908 93.995 8.91908C92.2753 8.91908 91.1681 10.2138 91.1681 11.988C91.1681 13.7622 92.2753 15.0569 93.995 15.0569C95.7147 15.0569 96.822 13.7862 96.822 11.988ZM87.3518 11.988C87.3518 8.1998 90.1787 5.51449 93.9479 5.51449C97.7171 5.51449 100.544 8.17582 100.544 11.988C100.544 15.8002 97.7171 18.4615 93.9479 18.4615C90.1787 18.4615 87.3518 15.7522 87.3518 11.988Z" fill="white"/></svg>